<svg width="45" height="45" viewBox="0 0 45 45" fill="none" xmlns="http://www.w3.org/2000/svg">
<path d="M22.5001 0C16.3843 0 15.6221 0.0295313 13.2287 0.130781C10.8254 0.248906 9.1998 0.621562 7.76543 1.17844C6.2642 1.74519 4.90464 2.63252 3.78152 3.77859C2.63226 4.89909 1.74443 6.25941 1.18137 7.7625C0.624492 9.19687 0.251836 10.8225 0.133711 13.2258C0.0254297 15.6206 0.00292969 16.3814 0.00292969 22.4972C0.00292969 28.613 0.0324609 29.3752 0.133711 31.7686C0.251836 34.1648 0.624492 35.7975 1.18137 37.2319C1.74811 38.7331 2.63545 40.0927 3.78152 41.2158C4.90202 42.3651 6.26233 43.2529 7.76543 43.8159C9.1998 44.3658 10.8325 44.7455 13.2287 44.8636C15.6236 44.9719 16.3843 44.9944 22.5001 44.9944C28.6159 44.9944 29.3781 44.9648 31.7715 44.8636C34.1678 44.7455 35.8004 44.3644 37.2348 43.8159C38.736 43.2492 40.0956 42.3619 41.2187 41.2158C42.3695 40.0965 43.2575 38.7358 43.8189 37.2319C44.3687 35.7975 44.7484 34.1648 44.8665 31.7686C44.9748 29.3737 44.9973 28.613 44.9973 22.4972C44.9973 16.3814 44.9678 15.6192 44.8665 13.2258C44.7484 10.8295 44.3673 9.18844 43.8189 7.7625C43.2521 6.26127 42.3648 4.90171 41.2187 3.77859C40.0994 2.62784 38.7388 1.73978 37.2348 1.17844C35.8004 0.621562 34.1678 0.248906 31.7715 0.130781C29.3767 0.0225 28.6159 0 22.5001 0ZM22.5001 4.05C28.5062 4.05 29.2234 4.07953 31.5971 4.18078C33.7867 4.28344 34.9792 4.64906 35.7709 4.95844C36.7497 5.31974 37.6356 5.89479 38.364 6.64172C39.1097 7.3671 39.6826 8.25096 40.0403 9.22781C40.3496 10.0195 40.7153 11.212 40.8179 13.4016C40.9192 15.7753 40.9487 16.4939 40.9487 22.4986C40.9487 28.5033 40.9192 29.2219 40.8095 31.5956C40.6914 33.7852 40.3257 34.9777 40.0178 35.7694C39.5917 36.8255 39.1164 37.5638 38.3317 38.3625C37.6008 39.1047 36.7155 39.677 35.7386 40.0387C34.9567 40.3481 33.7473 40.7137 31.5493 40.8164C29.1629 40.9177 28.4598 40.9472 22.4382 40.9472C16.4167 40.9472 15.715 40.9177 13.3257 40.808C11.1362 40.6898 9.92824 40.3242 9.13652 40.0163C8.06777 39.5902 7.33512 39.1148 6.55043 38.3302C5.75871 37.5384 5.25527 36.7847 4.86715 35.737C4.55215 34.9552 4.19215 33.7458 4.07543 31.5478C3.99527 29.1895 3.9573 28.4583 3.9573 22.4648C3.9573 16.4742 3.99527 15.7416 4.07543 13.3538C4.19215 11.1558 4.55215 9.94922 4.86715 9.16453C5.25527 8.09438 5.76012 7.36312 6.55043 6.57141C7.33371 5.78813 8.06777 5.28188 9.13652 4.88531C9.92824 4.57734 11.1067 4.21172 13.3046 4.10203C15.6911 4.01625 16.3942 3.98531 22.4073 3.98531L22.5001 4.05ZM22.5001 10.9505C20.9833 10.9499 19.4812 11.2483 18.0796 11.8285C16.6781 12.4087 15.4047 13.2594 14.3321 14.332C13.2595 15.4046 12.4088 16.678 11.8286 18.0795C11.2484 19.481 10.95 20.9831 10.9506 22.5C10.95 24.0169 11.2484 25.519 11.8286 26.9205C12.4088 28.322 13.2595 29.5954 14.3321 30.668C15.4047 31.7406 16.6781 32.5913 18.0796 33.1715C19.4812 33.7517 20.9833 34.0501 22.5001 34.0495C24.017 34.0501 25.5191 33.7517 26.9206 33.1715C28.3221 32.5913 29.5955 31.7406 30.6681 30.668C31.7407 29.5954 32.5914 28.322 33.1716 26.9205C33.7518 25.519 34.0502 24.0169 34.0496 22.5C34.0502 20.9831 33.7518 19.481 33.1716 18.0795C32.5914 16.678 31.7407 15.4046 30.6681 14.332C29.5955 13.2594 28.3221 12.4087 26.9206 11.8285C25.5191 11.2483 24.017 10.9499 22.5001 10.9505ZM22.5001 29.9995C18.3545 29.9995 15.0006 26.6456 15.0006 22.5C15.0006 18.3544 18.3545 15.0005 22.5001 15.0005C26.6457 15.0005 29.9996 18.3544 29.9996 22.5C29.9996 26.6456 26.6457 29.9995 22.5001 29.9995ZM37.2151 10.4892C37.2144 11.2059 36.9291 11.893 36.4221 12.3996C35.915 12.9061 35.2276 13.1906 34.5109 13.1906C34.1565 13.1906 33.8056 13.1208 33.4782 12.9852C33.1508 12.8496 32.8533 12.6508 32.6027 12.4002C32.3521 12.1496 32.1533 11.8521 32.0177 11.5247C31.8821 11.1973 31.8123 10.8464 31.8123 10.492C31.8123 10.1376 31.8821 9.78673 32.0177 9.45932C32.1533 9.13192 32.3521 8.83442 32.6027 8.58384C32.8533 8.33325 33.1508 8.13447 33.4782 7.99886C33.8056 7.86324 34.1565 7.79344 34.5109 7.79344C35.9973 7.79344 37.2151 9.00281 37.2151 10.4892Z" fill="black"/>
</svg>
