<svg width="269" height="285" viewBox="0 0 269 285" fill="none" xmlns="http://www.w3.org/2000/svg">
<path d="M189.887 39.1253L264.954 82.4721C266.142 83.1564 267.138 84.1318 267.845 85.3067C268.553 86.4816 268.951 87.8172 269 89.1879V276.167C269 278.913 267.302 282.126 265.214 283.335C263.126 284.543 259.485 284.405 257.106 283.036L182.306 239.85C181.054 239.03 180.012 237.927 179.264 236.63C178.516 235.334 178.083 233.879 178 232.385V45.9941C178 43.2405 179.698 40.0355 181.786 38.827C183.874 37.6185 187.508 37.7485 189.887 39.1253Z" fill="#653E5B"/>
<path opacity="0.05" d="M189.887 39.1253L264.954 82.4721C266.142 83.1564 267.138 84.1318 267.845 85.3067C268.553 86.4816 268.951 87.8172 269 89.1879V276.167C269 278.913 267.302 282.126 265.214 283.335C263.126 284.543 259.485 284.405 257.106 283.036L182.306 239.85C181.054 239.03 180.012 237.927 179.264 236.63C178.516 235.334 178.083 233.879 178 232.385V45.9941C178 43.2405 179.698 40.0355 181.786 38.827C183.874 37.6185 187.508 37.7485 189.887 39.1253Z" fill="black"/>
<path d="M258.139 283.526C260.433 284.421 263.394 284.382 265.206 283.334C267.295 282.126 268.993 278.913 268.993 276.167V89.1879C268.949 87.8844 268.575 86.6133 267.906 85.4934L260.946 89.4403C262.153 90.8467 262.858 92.6146 262.95 94.4657V279.663C262.958 282.975 260.869 284.543 258.139 283.526Z" fill="#653E5B"/>
<path opacity="0.3" d="M258.139 283.526C260.433 284.421 263.394 284.382 265.206 283.334C267.295 282.126 268.993 278.913 268.993 276.167V89.1879C268.949 87.8844 268.575 86.6133 267.906 85.4934L260.946 89.4403C262.153 90.8467 262.858 92.6146 262.95 94.4657V279.663C262.958 282.975 260.869 284.543 258.139 283.526Z" fill="black"/>
<path d="M259.156 87.8799C260.266 88.5996 261.191 89.571 261.856 90.7153C262.52 91.8596 262.905 93.1446 262.98 94.4657V279.663C262.98 283.38 260.349 284.895 257.136 283.044L182.322 239.85C181.069 239.03 180.027 237.927 179.279 236.63C178.531 235.334 178.098 233.879 178.015 232.385V45.9941C178.015 43.2558 179.95 42.1696 182.322 43.5082L259.156 87.8799Z" fill="#653E5B"/>
<path opacity="0.15" d="M259.156 87.8799C260.266 88.5996 261.191 89.571 261.856 90.7153C262.52 91.8596 262.905 93.1446 262.98 94.4657V279.663C262.98 283.38 260.349 284.895 257.136 283.044L182.322 239.85C181.069 239.03 180.027 237.927 179.279 236.63C178.531 235.334 178.098 233.879 178.015 232.385V45.9941C178.015 43.2558 179.95 42.1696 182.322 43.5082L259.156 87.8799Z" fill="black"/>
<path d="M256.173 99.0246C257.366 99.8003 258.359 100.847 259.072 102.079C259.784 103.311 260.195 104.694 260.273 106.115V272.366C260.273 274.974 258.437 276.037 256.173 274.729L185.802 234.098C184.61 233.319 183.618 232.27 182.906 231.037C182.194 229.804 181.782 228.421 181.702 227V60.7567C181.702 58.1484 183.546 57.0852 185.802 58.3855L256.173 99.0246Z" fill="#171717"/>
<path d="M184.509 67.7173V66.677C184.509 66.4552 184.601 66.3251 184.708 66.3863H184.762C184.83 66.4538 184.883 66.5352 184.917 66.6249C184.952 66.7146 184.966 66.8106 184.96 66.9065V67.9467C184.96 68.1686 184.869 68.2986 184.762 68.2374H184.708C184.641 68.1693 184.588 68.0879 184.554 67.9983C184.519 67.9088 184.504 67.813 184.509 67.7173Z" fill="white"/>
<path d="M185.404 68.2296V66.4474C185.404 66.218 185.496 66.0879 185.603 66.1491H185.656C185.726 66.2138 185.781 66.2936 185.815 66.3824C185.849 66.4712 185.863 66.5667 185.855 66.6616V68.4515C185.855 68.6809 185.771 68.811 185.656 68.7421H185.603C185.535 68.6761 185.482 68.5961 185.447 68.5077C185.413 68.4192 185.398 68.3244 185.404 68.2296Z" fill="white"/>
<path d="M186.307 68.7498V66.2103C186.307 65.9885 186.399 65.8585 186.506 65.9197H186.559C186.628 65.9872 186.681 66.0685 186.715 66.1582C186.749 66.2479 186.764 66.3439 186.758 66.4398V68.9793C186.758 69.2087 186.666 69.3388 186.559 69.2699H186.506C186.437 69.203 186.383 69.1218 186.349 69.0319C186.314 68.9421 186.3 68.8458 186.307 68.7498Z" fill="white"/>
<path d="M187.209 69.27V64.8795C187.209 64.6577 187.294 64.5277 187.401 64.5889H187.462C187.529 64.6553 187.581 64.7355 187.614 64.824C187.647 64.9125 187.66 65.0071 187.653 65.1013V69.5301C187.653 69.7519 187.569 69.882 187.462 69.8208H187.401C187.33 69.7492 187.275 69.6625 187.242 69.5672C187.209 69.4718 187.198 69.3703 187.209 69.27Z" fill="white"/>
<path d="M189.627 70.9757C189.616 70.9226 189.616 70.8681 189.627 70.815V70.1725L188.624 69.5912C188.594 69.5703 188.57 69.5413 188.555 69.5075C188.54 69.4738 188.535 69.4365 188.54 69.4V69.1705C188.535 69.1324 188.535 69.0939 188.54 69.0558C188.548 69.0257 188.561 68.9972 188.579 68.9716L189.649 67.2812C189.658 67.2587 189.674 67.2398 189.695 67.2277C189.695 67.2277 189.734 67.2277 189.764 67.2277L189.91 67.3118C189.95 67.338 189.982 67.3752 190.001 67.4189C190.011 67.4745 190.011 67.5315 190.001 67.5872V69.8819L190.223 70.0042C190.259 70.0295 190.288 70.0637 190.307 70.1037C190.317 70.1619 190.317 70.2214 190.307 70.2796V70.4326C190.32 70.475 190.32 70.5202 190.307 70.5626C190.307 70.5626 190.261 70.5626 190.223 70.5626L190.001 70.4326V71.0828C190.014 71.1252 190.014 71.1704 190.001 71.2128C190.001 71.2128 189.955 71.2128 189.91 71.2128L189.741 71.1133C189.711 71.1035 189.684 71.0854 189.664 71.0611C189.644 71.0367 189.631 71.0071 189.627 70.9757ZM189.665 69.66V68.0538L188.9 69.2393L189.665 69.66Z" fill="white"/>
<path d="M190.835 71.2816C190.631 70.7526 190.532 70.1887 190.544 69.6218C190.497 69.1624 190.602 68.7003 190.843 68.3062C191.034 68.0767 191.317 68.0614 191.676 68.3062C191.825 68.3922 191.961 68.4977 192.082 68.6198C192.201 68.741 192.304 68.8773 192.388 69.0252C192.398 69.055 192.398 69.0872 192.388 69.117C192.391 69.1347 192.391 69.1528 192.388 69.1705L192.296 69.4C192.296 69.4 192.296 69.4382 192.258 69.4C192.219 69.3617 192.258 69.4 192.258 69.3464C192.13 69.137 191.955 68.9613 191.745 68.834C191.5 68.6963 191.309 68.7116 191.171 68.834C191 69.133 190.928 69.4782 190.965 69.8207C190.953 70.2376 191.02 70.653 191.164 71.0445C191.27 71.3245 191.463 71.5631 191.715 71.7253C191.794 71.7706 191.879 71.8065 191.967 71.8324C192.029 71.8513 192.096 71.8513 192.158 71.8324V70.8227L191.745 70.5856C191.705 70.5628 191.673 70.528 191.653 70.4861C191.644 70.4279 191.644 70.3685 191.653 70.3102V70.1649C191.642 70.1197 191.642 70.0724 191.653 70.0272C191.653 70.0272 191.699 70.0272 191.745 70.0272L192.411 70.4097C192.458 70.4369 192.493 70.4804 192.51 70.532C192.524 70.5976 192.524 70.6654 192.51 70.7309V72.2607C192.515 72.3014 192.515 72.3424 192.51 72.3831C192.514 72.4008 192.514 72.419 192.51 72.4366C192.382 72.4792 192.245 72.4897 192.111 72.467C191.978 72.4443 191.852 72.3893 191.745 72.3066C191.335 72.0776 191.014 71.7163 190.835 71.2816Z" fill="white"/>
<path d="M255.025 104.845C254.959 104.615 254.826 104.41 254.643 104.256L251.583 102.512C251.323 102.359 251.117 102.665 251.117 103.193V105.488C251.12 105.802 251.18 106.113 251.293 106.406C251.334 106.523 251.388 106.636 251.453 106.742C251.512 106.843 251.593 106.93 251.69 106.995L254.712 108.739C254.972 108.892 255.178 108.593 255.178 108.058V105.763C255.182 105.451 255.13 105.14 255.025 104.845ZM251.423 106.215C251.381 106.084 251.36 105.947 251.361 105.809V103.553C251.361 103.155 251.522 102.918 251.713 103.033L254.735 104.777C254.789 104.808 254.834 104.852 254.865 104.907L254.911 105.014C254.959 105.141 254.982 105.276 254.979 105.411V107.706C254.979 108.096 254.819 108.333 254.628 108.226L251.568 106.482C251.493 106.41 251.442 106.317 251.423 106.215Z" fill="white"/>
<path d="M253.335 104.371V107.041L251.706 106.1C251.706 106.1 251.668 106.1 251.652 106.1C251.637 106.1 251.652 106.054 251.652 106.008V103.973C251.652 103.69 251.782 103.507 251.912 103.591L253.335 104.371Z" fill="white"/>
<path d="M255.347 105.87C255.461 105.931 255.553 106.36 255.553 106.826V107.239C255.553 107.706 255.461 108.004 255.347 108.004L255.14 107.913V105.786L255.347 105.87Z" fill="white"/>
<path d="M196.603 74.2876C196.603 74.7848 196.343 75.0525 196.021 74.846C195.835 74.6988 195.685 74.5102 195.584 74.2951C195.483 74.08 195.434 73.8444 195.44 73.6069C195.44 73.1097 195.7 72.842 196.021 73.0485C196.208 73.1957 196.357 73.3843 196.458 73.5994C196.559 73.8145 196.609 74.0501 196.603 74.2876Z" fill="white"/>
<path d="M196.021 71.5723C195.906 71.4912 195.773 71.4387 195.633 71.4192C195.494 71.3997 195.351 71.4137 195.218 71.46C195.085 71.5064 194.965 71.5837 194.868 71.6857C194.771 71.7877 194.699 71.9114 194.659 72.0465C194.636 72.1268 194.63 72.2109 194.641 72.2937C194.651 72.3765 194.678 72.4563 194.72 72.5284C194.835 72.7273 194.996 72.7732 195.065 72.6202C195.09 72.5234 195.139 72.4344 195.207 72.3608C195.274 72.2872 195.359 72.2314 195.453 72.1982C195.548 72.165 195.649 72.1554 195.748 72.1703C195.847 72.1852 195.94 72.2241 196.021 72.2836C196.504 72.6304 196.844 73.1418 196.977 73.7216C197.046 73.9511 197.206 74.0965 197.321 74.0276C197.405 73.9741 197.436 73.7981 197.382 73.6146C197.185 72.7938 196.703 72.0699 196.021 71.5723Z" fill="white"/>
<path d="M196.021 70.1344C195.853 70.0128 195.661 69.9301 195.457 69.8924C195.253 69.8547 195.044 69.8629 194.844 69.9164C194.644 69.9699 194.458 70.0673 194.301 70.2016C194.143 70.336 194.017 70.5037 193.933 70.6928C193.901 70.7748 193.889 70.863 193.897 70.9505C193.905 71.0381 193.933 71.1226 193.979 71.1976C194.086 71.3888 194.246 71.4347 194.315 71.3047C194.382 71.1488 194.484 71.01 194.612 70.8986C194.74 70.7872 194.892 70.7061 195.056 70.6613C195.22 70.6165 195.391 70.6091 195.559 70.6397C195.726 70.6703 195.884 70.7381 196.021 70.8381C196.852 71.4292 197.454 72.288 197.727 73.2705C197.803 73.4923 197.956 73.6223 198.063 73.5535C198.155 73.4923 198.178 73.3011 198.109 73.1099C197.775 71.9076 197.038 70.8569 196.021 70.1344Z" fill="white"/>
<path d="M218.899 87.6428C218.909 87.6726 218.909 87.7048 218.899 87.7346C218.888 87.7421 218.874 87.7462 218.861 87.7462C218.847 87.7462 218.834 87.7421 218.823 87.7346L218.677 87.6504C218.649 87.6274 218.625 87.5988 218.608 87.5663C218.598 87.5262 218.598 87.4841 218.608 87.4439V84.3843L218.019 84.7362C218.015 84.7411 218.01 84.745 218.004 84.7477C217.998 84.7503 217.992 84.7517 217.985 84.7517C217.979 84.7517 217.972 84.7503 217.966 84.7477C217.96 84.745 217.955 84.7411 217.951 84.7362C217.917 84.7114 217.893 84.6765 217.882 84.6367L217.798 84.4149C217.791 84.3744 217.791 84.3331 217.798 84.2925C217.791 84.2675 217.791 84.2411 217.798 84.2161L218.563 83.7495C218.57 83.7439 218.58 83.7408 218.589 83.7408C218.599 83.7408 218.608 83.7439 218.616 83.7495H218.677L218.823 83.8412C218.857 83.8596 218.884 83.8893 218.899 83.9254C218.906 83.9659 218.906 84.0073 218.899 84.0478V87.6428Z" fill="white"/>
<path d="M219.763 85.6542C219.792 85.6772 219.815 85.7058 219.832 85.7383C219.839 85.7788 219.839 85.8202 219.832 85.8607V86.2355C219.843 86.2651 219.843 86.2977 219.832 86.3273C219.828 86.3322 219.823 86.3361 219.817 86.3387C219.811 86.3414 219.804 86.3428 219.798 86.3428C219.791 86.3428 219.785 86.3414 219.779 86.3387C219.773 86.3361 219.768 86.3322 219.763 86.3273L219.518 86.1819C219.502 86.1737 219.487 86.1619 219.475 86.1474C219.463 86.1329 219.454 86.116 219.45 86.0978C219.438 86.0578 219.438 86.0154 219.45 85.9754V85.6006C219.443 85.5876 219.439 85.5732 219.439 85.5585C219.439 85.5439 219.443 85.5295 219.45 85.5165C219.45 85.5165 219.488 85.5165 219.518 85.5165L219.763 85.6542ZM219.763 87.6123C219.792 87.6353 219.815 87.664 219.832 87.6964C219.839 87.737 219.839 87.7783 219.832 87.8188V88.1936C219.842 88.2234 219.842 88.2556 219.832 88.2854C219.822 88.2923 219.81 88.296 219.798 88.296C219.785 88.296 219.773 88.2923 219.763 88.2854L219.518 88.1401C219.502 88.1319 219.487 88.1201 219.475 88.1056C219.463 88.091 219.454 88.0741 219.45 88.0559C219.439 88.0158 219.439 87.9737 219.45 87.9336V87.5588C219.438 87.5293 219.438 87.4964 219.45 87.467C219.45 87.467 219.488 87.467 219.518 87.467L219.763 87.6123Z" fill="white"/>
<path d="M221.545 89.3179C221.515 89.2968 221.491 89.2677 221.477 89.2338C221.469 89.1934 221.469 89.1518 221.477 89.1114V88.3465L220.337 87.6887C220.307 87.6676 220.283 87.6385 220.268 87.6046C220.26 87.5641 220.26 87.5226 220.268 87.4822V87.2833C220.264 87.2554 220.264 87.2271 220.268 87.1992C220.274 87.1709 220.287 87.1446 220.306 87.1227L221.454 85.4705C221.454 85.4705 221.492 85.417 221.515 85.4093C221.526 85.4017 221.539 85.3977 221.553 85.3977C221.567 85.3977 221.58 85.4017 221.591 85.4093L221.744 85.4934C221.773 85.5165 221.796 85.5451 221.813 85.5776C221.82 85.6181 221.82 85.6595 221.813 85.7V88.0406L222.127 88.2165C222.159 88.2352 222.184 88.2651 222.196 88.3006C222.205 88.3408 222.205 88.3828 222.196 88.423V88.6295C222.202 88.6425 222.206 88.657 222.206 88.6716C222.206 88.6862 222.202 88.7007 222.196 88.7137C222.196 88.7137 222.157 88.7137 222.127 88.7137L221.813 88.5301V89.295C221.824 89.3246 221.824 89.3572 221.813 89.3868C221.803 89.3937 221.791 89.3974 221.779 89.3974C221.766 89.3974 221.754 89.3937 221.744 89.3868L221.545 89.3179ZM221.446 87.8417V86.266L220.681 87.3827L221.446 87.8417Z" fill="white"/>
<path d="M222.808 89.1038C222.808 89.1726 222.808 89.2415 222.861 89.318C222.886 89.3928 222.92 89.4647 222.961 89.5321C223.009 89.6093 223.065 89.6811 223.129 89.7463C223.216 89.8241 223.311 89.8933 223.412 89.9528C223.478 89.9917 223.55 90.0176 223.626 90.0293C223.683 90.0491 223.745 90.0491 223.802 90.0293C223.858 89.9927 223.901 89.9391 223.924 89.8763C223.958 89.7833 223.974 89.6846 223.97 89.5857C223.972 89.4743 223.956 89.3635 223.924 89.2568C223.897 89.1633 223.858 89.0734 223.81 88.9891C223.762 88.9096 223.702 88.8375 223.634 88.7749C223.565 88.7146 223.491 88.6608 223.412 88.6143L223.106 88.4383C223.077 88.4153 223.054 88.3866 223.037 88.3542C223.03 88.3137 223.03 88.2723 223.037 88.2318V88.0329C223.028 88.0056 223.028 87.9762 223.037 87.9488L223.075 87.8952L223.733 87.1915L222.685 86.5873C222.653 86.5686 222.628 86.5387 222.616 86.5031C222.607 86.4629 222.607 86.421 222.616 86.3807V86.1742C222.61 86.1612 222.606 86.1468 222.606 86.1322C222.606 86.1175 222.61 86.1031 222.616 86.0901C222.616 86.0901 222.655 86.0901 222.685 86.0901L224.116 86.9162C224.144 86.9392 224.167 86.9679 224.184 87.0003C224.191 87.0408 224.191 87.0822 224.184 87.1227V87.3216C224.193 87.3515 224.193 87.3834 224.184 87.4134C224.176 87.4381 224.16 87.4596 224.139 87.4746L223.496 88.1706C223.745 88.3363 223.948 88.5627 224.085 88.8284C224.161 88.9732 224.218 89.1275 224.253 89.2874C224.293 89.4527 224.314 89.6221 224.314 89.7922C224.321 89.9513 224.295 90.1101 224.238 90.2588C224.202 90.365 224.136 90.4582 224.047 90.5265C223.965 90.5864 223.864 90.6137 223.764 90.603C223.638 90.5918 223.517 90.5498 223.412 90.4806C223.253 90.3965 223.111 90.2852 222.991 90.1517C222.874 90.0348 222.776 89.9007 222.701 89.754C222.552 89.5094 222.473 89.2292 222.471 88.9432C222.462 88.9211 222.462 88.8964 222.471 88.8743H222.525L222.693 88.9738C222.721 88.989 222.742 89.0133 222.754 89.0426C222.775 89.0604 222.793 89.081 222.808 89.1038Z" fill="white"/>
<path d="M206.278 97.097V92.9359C206.278 92.8059 206.347 92.7906 206.492 92.8671L206.6 92.9283C206.645 92.9578 206.687 92.9939 206.722 93.0353C206.757 93.0859 206.78 93.1433 206.791 93.2036L207.625 96.0567C207.625 96.1714 207.701 96.355 207.755 96.5998C207.732 96.435 207.719 96.2689 207.716 96.1026V93.8079C207.716 93.6855 207.785 93.6626 207.931 93.7467L208.015 93.7926C208.077 93.8189 208.13 93.8624 208.168 93.918C208.206 93.9736 208.227 94.0389 208.229 94.1062V98.2672C208.229 98.3973 208.16 98.4126 208.015 98.3361L207.931 98.2825C207.883 98.2553 207.841 98.2189 207.808 98.1755C207.768 98.1304 207.741 98.0746 207.732 98.0148L206.867 95.047C206.821 94.8936 206.783 94.7379 206.753 94.5804C206.763 94.7332 206.763 94.8866 206.753 95.0394V97.3723C206.753 97.4947 206.684 97.5177 206.538 97.4335L206.462 97.3876C206.409 97.3584 206.365 97.3164 206.333 97.2657C206.301 97.2149 206.282 97.1569 206.278 97.097Z" fill="#653E5B"/>
<path d="M208.887 96.5157C208.887 94.9859 209.246 94.4275 209.965 94.8406C210.684 95.2613 211.044 96.2327 211.044 97.7625C211.044 99.2923 210.684 99.8583 209.965 99.4453C209.246 99.0322 208.887 98.0532 208.887 96.5157ZM210.348 98.5809C210.457 98.209 210.501 97.8207 210.478 97.4336C210.492 97.0013 210.449 96.5691 210.348 96.1486C210.327 96.0307 210.282 95.9184 210.216 95.8185C210.151 95.7185 210.065 95.633 209.965 95.5672C209.933 95.5417 209.896 95.5245 209.855 95.5173C209.815 95.5101 209.774 95.5131 209.735 95.526C209.696 95.539 209.661 95.5614 209.633 95.5913C209.605 95.6212 209.585 95.6577 209.575 95.6973C209.469 96.0699 209.428 96.458 209.453 96.8446C209.437 97.279 209.478 97.7136 209.575 98.1373C209.623 98.3772 209.763 98.5887 209.965 98.7263C210.141 98.8257 210.279 98.7798 210.348 98.5809Z" fill="#653E5B"/>
<path d="M211.962 100.432L211.403 95.9344V95.8426C211.403 95.7355 211.48 95.7279 211.625 95.8426L211.717 95.8962C211.778 95.9239 211.832 95.9663 211.874 96.0196C211.915 96.073 211.943 96.1356 211.954 96.2021L212.214 98.9787L212.26 99.5753V99.9042C212.26 99.713 212.306 99.43 212.352 99.0705L212.65 96.5846C212.65 96.5387 212.65 96.5157 212.704 96.5081C212.749 96.5152 212.794 96.5307 212.834 96.554L212.994 96.6534C213.043 96.6789 213.087 96.7125 213.124 96.7528C213.153 96.7908 213.172 96.8356 213.178 96.8829L213.476 99.7283C213.476 99.8277 213.476 100.019 213.53 100.287C213.53 100.386 213.53 100.516 213.53 100.669L213.614 99.8201L213.874 97.3418C213.874 97.2347 213.958 97.2271 214.103 97.3418L214.188 97.3877C214.333 97.4718 214.409 97.5636 214.409 97.6707V97.7549L213.843 101.579C213.843 101.648 213.775 101.656 213.66 101.579L213.423 101.442C213.392 101.409 213.368 101.371 213.353 101.329C213.339 101.286 213.334 101.241 213.339 101.197L213.025 98.5809L212.971 97.816L212.918 98.5121L212.597 100.761C212.597 100.837 212.528 100.845 212.421 100.761L212.184 100.623C212.135 100.608 212.091 100.584 212.053 100.551C212.015 100.518 211.984 100.477 211.962 100.432Z" fill="#653E5B"/>
<path d="M215.755 102.574V98.4739C215.737 98.4218 215.737 98.3653 215.755 98.3132C215.755 98.3132 215.816 98.3132 215.87 98.3132L216.543 98.7033C216.828 98.8812 217.058 99.135 217.207 99.4364C217.355 99.7377 217.417 100.075 217.384 100.409C217.384 100.922 217.254 101.212 216.987 101.273C217.138 101.543 217.236 101.839 217.277 102.145L217.522 103.53C217.526 103.545 217.526 103.561 217.522 103.576C217.525 103.591 217.525 103.606 217.522 103.622C217.522 103.719 217.446 103.719 217.293 103.622L217.178 103.545C217.122 103.522 217.073 103.485 217.034 103.439C216.996 103.392 216.969 103.337 216.956 103.277L216.727 101.901C216.707 101.773 216.668 101.649 216.612 101.533C216.566 101.449 216.497 101.38 216.413 101.335L216.26 101.243V102.841C216.26 102.964 216.184 102.979 216.038 102.895L215.924 102.834C215.879 102.805 215.84 102.767 215.811 102.722C215.782 102.677 215.763 102.627 215.755 102.574ZM216.604 100.684C216.681 100.73 216.75 100.684 216.803 100.623C216.864 100.492 216.891 100.347 216.88 100.203C216.887 100.033 216.861 99.8644 216.803 99.7054C216.765 99.5942 216.689 99.4996 216.589 99.4376L216.306 99.2694V100.508L216.604 100.684Z" fill="#653E5B"/>
<path d="M218.157 104.073C218.143 104.007 218.143 103.94 218.157 103.874V99.8354C218.157 99.7512 218.157 99.6977 218.157 99.6747C218.157 99.6518 218.218 99.6747 218.264 99.6747L219.488 100.378C219.53 100.404 219.56 100.446 219.572 100.493C219.582 100.569 219.582 100.646 219.572 100.723V100.891C219.583 100.954 219.583 101.019 219.572 101.082C219.572 101.082 219.526 101.128 219.488 101.082L218.677 100.616V101.732L219.404 102.153C219.443 102.181 219.473 102.222 219.488 102.268C219.498 102.341 219.498 102.416 219.488 102.49V102.727C219.499 102.793 219.499 102.86 219.488 102.926C219.483 102.932 219.477 102.937 219.469 102.941C219.462 102.944 219.454 102.946 219.446 102.946C219.438 102.946 219.43 102.944 219.423 102.941C219.415 102.937 219.409 102.932 219.404 102.926L218.677 102.513V103.736L219.496 104.203C219.533 104.232 219.56 104.272 219.572 104.318C219.583 104.391 219.583 104.466 219.572 104.54V104.708C219.584 104.774 219.584 104.841 219.572 104.907C219.568 104.913 219.562 104.918 219.556 104.922C219.549 104.925 219.541 104.927 219.534 104.927C219.526 104.927 219.519 104.925 219.512 104.922C219.505 104.918 219.5 104.913 219.496 104.907L218.264 104.203C218.216 104.172 218.178 104.126 218.157 104.073Z" fill="#653E5B"/>
<path d="M220.414 104.922C220.218 104.307 220.13 103.662 220.154 103.017C220.112 102.492 220.207 101.965 220.429 101.488C220.612 101.22 220.895 101.189 221.27 101.411C221.414 101.494 221.545 101.597 221.66 101.717C221.698 101.759 221.727 101.808 221.745 101.862C221.753 101.923 221.753 101.985 221.745 102.046C221.746 102.16 221.731 102.273 221.699 102.382C221.699 102.474 221.622 102.49 221.569 102.428C221.487 102.323 221.385 102.235 221.27 102.168C221.236 102.14 221.196 102.12 221.152 102.112C221.109 102.103 221.063 102.105 221.021 102.118C220.979 102.131 220.94 102.154 220.909 102.185C220.877 102.217 220.854 102.256 220.842 102.298C220.728 102.651 220.682 103.022 220.704 103.392C220.692 103.815 220.738 104.237 220.842 104.647C220.902 104.91 221.061 105.14 221.286 105.289C221.336 105.317 221.39 105.338 221.446 105.35C221.497 105.355 221.548 105.355 221.599 105.35H221.637C221.698 105.403 221.736 105.477 221.745 105.557C221.774 105.68 221.786 105.806 221.783 105.932C221.793 105.977 221.793 106.024 221.783 106.069C221.775 106.085 221.763 106.097 221.748 106.105C221.733 106.114 221.716 106.117 221.699 106.115C221.636 106.128 221.57 106.128 221.507 106.115C221.422 106.088 221.34 106.052 221.263 106.008C220.857 105.761 220.556 105.375 220.414 104.922Z" fill="#653E5B"/>
<path d="M222.188 104.195C222.188 102.665 222.547 102.107 223.266 102.52C223.986 102.941 224.345 103.912 224.345 105.442C224.345 106.972 223.986 107.538 223.266 107.125C222.547 106.712 222.188 105.733 222.188 104.195ZM223.649 106.26C223.759 105.888 223.803 105.5 223.779 105.113C223.794 104.681 223.75 104.249 223.649 103.828C223.628 103.71 223.583 103.598 223.518 103.498C223.452 103.398 223.366 103.312 223.266 103.247C223.091 103.147 222.968 103.193 222.876 103.377C222.774 103.75 222.733 104.138 222.754 104.524C222.742 104.958 222.783 105.392 222.876 105.817C222.927 106.055 223.067 106.266 223.266 106.406C223.442 106.505 223.565 106.459 223.649 106.26Z" fill="#653E5B"/>
<path d="M224.988 107.897V103.798C224.972 103.745 224.972 103.689 224.988 103.637C224.988 103.637 225.049 103.637 225.102 103.637L225.776 104.027C226.061 104.206 226.291 104.461 226.44 104.764C226.589 105.067 226.65 105.405 226.617 105.74C226.617 106.253 226.487 106.505 226.227 106.597C226.375 106.865 226.471 107.158 226.51 107.461L226.762 108.854C226.759 108.869 226.759 108.884 226.762 108.899V108.945C226.762 109.045 226.693 109.045 226.54 108.945L226.418 108.877C226.362 108.852 226.314 108.814 226.276 108.766C226.239 108.718 226.214 108.661 226.204 108.601L225.967 107.232C225.949 107.104 225.911 106.98 225.852 106.865C225.811 106.778 225.74 106.707 225.653 106.666L225.5 106.574V108.165C225.5 108.288 225.424 108.31 225.278 108.226L225.164 108.158C225.116 108.131 225.076 108.093 225.045 108.048C225.015 108.003 224.995 107.951 224.988 107.897ZM225.837 106.016C225.913 106.016 225.974 106.016 226.028 105.947C226.094 105.82 226.123 105.677 226.112 105.534C226.117 105.362 226.088 105.19 226.028 105.029C225.99 104.92 225.917 104.826 225.821 104.761L225.538 104.601V105.84L225.837 106.016Z" fill="#653E5B"/>
<path d="M227.382 109.404C227.371 109.338 227.371 109.271 227.382 109.205V105.167C227.369 105.111 227.369 105.054 227.382 104.998C227.382 104.998 227.443 104.998 227.497 104.998L228.262 105.442C228.627 105.679 228.898 106.036 229.026 106.452C229.225 107.051 229.315 107.68 229.294 108.31C229.338 108.835 229.246 109.362 229.026 109.84C228.851 110.108 228.59 110.139 228.262 109.932L227.497 109.488C227.451 109.473 227.411 109.443 227.382 109.404ZM228.239 109.228C228.407 109.328 228.537 109.282 228.621 109.091C228.726 108.733 228.767 108.361 228.743 107.989C228.758 107.57 228.717 107.151 228.621 106.742C228.573 106.507 228.436 106.299 228.239 106.161L227.917 105.977V109.037L228.239 109.228Z" fill="#653E5B"/>
<path d="M229.975 110.781V106.62C229.975 106.49 230.051 106.467 230.189 106.543L230.327 106.628C230.389 106.653 230.443 106.696 230.481 106.752C230.519 106.808 230.54 106.874 230.541 106.941V111.14C230.541 111.271 230.472 111.293 230.327 111.217L230.189 111.133C230.122 111.103 230.065 111.054 230.027 110.991C229.988 110.928 229.97 110.855 229.975 110.781Z" fill="#653E5B"/>
<path d="M231.26 111.523V107.362C231.26 107.232 231.336 107.217 231.474 107.293L231.589 107.362C231.634 107.387 231.673 107.42 231.703 107.461C231.741 107.511 231.767 107.569 231.78 107.63L232.614 110.483C232.614 110.597 232.69 110.781 232.744 111.033C232.733 110.868 232.733 110.702 232.744 110.536V108.242C232.744 108.119 232.813 108.096 232.958 108.18L233.042 108.226C233.102 108.255 233.154 108.299 233.192 108.354C233.229 108.409 233.252 108.473 233.256 108.54V112.67C233.256 112.8 233.18 112.816 233.042 112.739L232.958 112.686C232.911 112.661 232.869 112.627 232.835 112.586C232.797 112.537 232.77 112.479 232.759 112.418L231.887 109.458C231.887 109.358 231.826 109.205 231.78 108.984C231.79 109.136 231.79 109.29 231.78 109.442V111.829C231.78 111.951 231.711 111.974 231.566 111.89L231.482 111.844C231.419 111.816 231.365 111.771 231.326 111.715C231.286 111.658 231.264 111.592 231.26 111.523Z" fill="#653E5B"/>
<path d="M235.773 111.951V113.848C235.773 114.001 235.689 114.07 235.52 114.062C235.327 114.05 235.141 113.99 234.977 113.886C234.586 113.648 234.291 113.28 234.144 112.846C233.939 112.235 233.846 111.593 233.868 110.949C233.818 110.408 233.916 109.864 234.151 109.374C234.335 109.106 234.618 109.075 235 109.297C235.127 109.37 235.242 109.46 235.344 109.565C235.449 109.66 235.542 109.768 235.62 109.886C235.677 109.965 235.714 110.057 235.727 110.154C235.72 110.248 235.692 110.34 235.643 110.421C235.589 110.513 235.543 110.551 235.505 110.529C235.468 110.499 235.436 110.463 235.413 110.421C235.362 110.351 235.305 110.285 235.245 110.223C235.179 110.157 235.104 110.1 235.023 110.054C234.824 109.94 234.671 109.978 234.579 110.177C234.466 110.527 234.419 110.895 234.442 111.263C234.431 111.687 234.474 112.112 234.572 112.525C234.624 112.779 234.772 113.004 234.985 113.152C235.059 113.199 235.143 113.23 235.23 113.244V112.127L234.962 111.974C234.962 111.974 234.901 111.921 234.878 111.859C234.868 111.786 234.868 111.711 234.878 111.638V111.469C234.866 111.406 234.866 111.341 234.878 111.278C234.878 111.24 234.924 111.232 234.962 111.278L235.627 111.661C235.675 111.692 235.713 111.736 235.738 111.787C235.764 111.838 235.776 111.894 235.773 111.951Z" fill="#653E5B"/>
<path d="M196.61 119.111C196.048 117.014 195.79 114.848 195.845 112.678C195.845 110.047 196.1 108.193 196.61 107.117C197.12 106.041 197.849 105.786 198.798 106.352C199.756 106.903 200.488 108.01 200.993 109.672C201.56 111.768 201.817 113.935 201.758 116.105C201.758 118.736 201.503 120.59 200.993 121.666C200.483 122.741 199.751 122.996 198.798 122.43C197.842 121.849 197.115 120.763 196.61 119.111ZM199.371 119.983C199.573 119.496 199.689 118.979 199.716 118.453C199.8 117.688 199.838 116.51 199.838 115.003C199.838 113.496 199.8 112.311 199.716 111.416C199.673 110.753 199.557 110.096 199.371 109.458C199.283 109.123 199.08 108.831 198.798 108.632C198.751 108.599 198.697 108.577 198.64 108.567C198.583 108.558 198.525 108.562 198.47 108.578C198.415 108.594 198.364 108.622 198.322 108.661C198.279 108.699 198.246 108.747 198.224 108.8C198.021 109.286 197.907 109.804 197.887 110.33C197.803 111.095 197.757 112.273 197.757 113.772C197.757 115.271 197.803 116.472 197.887 117.367C197.924 118.028 198.037 118.682 198.224 119.317C198.311 119.652 198.514 119.945 198.798 120.143C198.844 120.178 198.897 120.202 198.954 120.212C199.01 120.223 199.069 120.22 199.124 120.205C199.18 120.189 199.231 120.161 199.274 120.123C199.317 120.084 199.35 120.036 199.371 119.983Z" fill="#653E5B"/>
<path d="M204.06 123.379C203.502 121.282 203.245 119.116 203.295 116.946C203.295 114.323 203.548 112.464 204.06 111.385C204.573 110.307 205.292 110.047 206.248 110.62C207.204 111.194 207.938 112.28 208.451 113.94C209.013 116.039 209.271 118.208 209.216 120.381C209.216 123.012 208.961 124.863 208.451 125.934C207.938 127.012 207.212 127.272 206.248 126.699C205.284 126.125 204.565 125.069 204.06 123.379ZM206.821 124.251C207.024 123.765 207.141 123.247 207.166 122.721C207.25 121.956 207.288 120.778 207.288 119.279C207.288 117.78 207.288 116.579 207.166 115.692C207.124 115.028 207.009 114.371 206.821 113.734C206.733 113.399 206.53 113.107 206.248 112.907C206.202 112.873 206.149 112.85 206.092 112.839C206.036 112.829 205.977 112.832 205.922 112.849C205.867 112.865 205.817 112.894 205.775 112.934C205.733 112.973 205.701 113.022 205.682 113.076C205.479 113.562 205.362 114.079 205.338 114.606C205.253 115.37 205.215 116.548 205.215 118.048C205.215 119.547 205.253 120.748 205.338 121.635C205.379 122.298 205.494 122.955 205.682 123.593C205.772 123.924 205.972 124.215 206.248 124.419C206.292 124.454 206.344 124.479 206.4 124.491C206.455 124.504 206.513 124.503 206.568 124.49C206.623 124.477 206.675 124.451 206.719 124.415C206.763 124.379 206.798 124.333 206.821 124.281V124.251Z" fill="#653E5B"/>
<path d="M210.776 119.868V118.025C210.776 117.589 211.021 117.512 211.541 117.803L211.946 118.032C212.162 118.124 212.348 118.275 212.483 118.466C212.618 118.658 212.697 118.884 212.711 119.118V120.992C212.711 121.413 212.459 121.482 211.946 121.191L211.541 120.954C211.323 120.865 211.135 120.715 210.999 120.523C210.864 120.33 210.786 120.103 210.776 119.868ZM210.776 128.572V126.698C210.776 126.278 211.021 126.217 211.541 126.5L211.946 126.737C212.159 126.826 212.343 126.973 212.478 127.161C212.613 127.348 212.694 127.569 212.711 127.8V129.674C212.711 130.11 212.459 130.179 211.946 129.896L211.541 129.659C211.324 129.568 211.137 129.418 211.002 129.226C210.866 129.034 210.788 128.807 210.776 128.572Z" fill="#653E5B"/>
<path d="M215.189 129.835C214.627 127.738 214.369 125.572 214.424 123.402C214.424 120.771 214.679 118.917 215.189 117.841C215.699 116.765 216.428 116.51 217.377 117.076C218.335 117.627 219.067 118.733 219.572 120.396C220.139 122.494 220.396 124.664 220.337 126.836C220.337 129.46 220.085 131.319 219.572 132.389C219.06 133.46 218.333 133.728 217.377 133.154C216.421 132.581 215.694 131.494 215.189 129.835ZM217.95 130.707C218.153 130.221 218.27 129.703 218.295 129.177C218.379 128.412 218.417 127.234 218.417 125.735C218.417 124.236 218.379 123.035 218.295 122.147C218.253 121.484 218.138 120.827 217.95 120.189C217.862 119.855 217.659 119.562 217.377 119.363C217.331 119.329 217.278 119.305 217.221 119.295C217.165 119.285 217.106 119.288 217.051 119.305C216.996 119.321 216.946 119.35 216.904 119.389C216.862 119.429 216.83 119.477 216.811 119.531C216.6 120.015 216.484 120.534 216.467 121.061C216.382 121.826 216.337 122.996 216.337 124.503C216.337 126.01 216.382 127.203 216.467 128.091C216.501 128.755 216.617 129.413 216.811 130.049C216.901 130.38 217.101 130.671 217.377 130.875C217.423 130.904 217.475 130.922 217.529 130.929C217.583 130.936 217.638 130.932 217.69 130.916C217.743 130.9 217.791 130.873 217.832 130.837C217.872 130.801 217.905 130.756 217.928 130.707H217.95Z" fill="#653E5B"/>
<path d="M223.099 136.237C222.749 135.916 222.443 135.551 222.188 135.151C221.994 134.871 221.88 134.543 221.859 134.202C221.882 133.931 221.968 133.669 222.112 133.437C222.288 133.131 222.433 133.009 222.563 133.086C222.685 133.218 222.795 133.362 222.892 133.514C223.087 133.784 223.302 134.04 223.534 134.279C223.758 134.526 224.016 134.739 224.299 134.914C224.455 135.036 224.652 135.093 224.849 135.073C225.046 135.053 225.227 134.957 225.355 134.807C225.684 134.302 225.83 133.7 225.768 133.101C225.768 131.296 225.182 130.054 224.009 129.376L222.724 128.611C222.552 128.52 222.414 128.375 222.334 128.198C222.251 127.97 222.214 127.728 222.227 127.486L222.502 121.023C222.482 120.826 222.533 120.627 222.647 120.465C222.739 120.388 222.877 120.403 223.06 120.511L226.885 122.713C227.031 122.807 227.138 122.951 227.183 123.119C227.243 123.369 227.271 123.626 227.267 123.884V124.381C227.282 124.574 227.253 124.767 227.183 124.947C227.122 125.039 227.022 125.039 226.885 124.947L224.208 123.417L224.047 127.043L224.414 127.249C226.571 128.494 227.65 130.77 227.65 134.08C227.65 135.824 227.328 136.902 226.694 137.323C226.337 137.521 225.931 137.612 225.524 137.585C225.117 137.558 224.726 137.414 224.399 137.17C223.93 136.912 223.494 136.598 223.099 136.237Z" fill="#653E5B"/>
<path d="M229.355 139.296V137.43C229.355 137.009 229.608 136.941 230.12 137.231L230.526 137.461C230.739 137.55 230.923 137.697 231.058 137.885C231.193 138.072 231.273 138.293 231.291 138.524V140.398C231.291 140.834 231.038 140.91 230.526 140.62L230.12 140.383C229.904 140.291 229.718 140.141 229.582 139.949C229.447 139.757 229.369 139.531 229.355 139.296Z" fill="#653E5B"/>
<path d="M233.593 142.073C233.082 141.629 232.757 141.009 232.683 140.337C232.698 140.068 232.773 139.807 232.904 139.572C233.057 139.274 233.195 139.166 233.325 139.235C233.454 139.361 233.567 139.502 233.662 139.656C233.929 140.023 234.174 140.329 234.381 140.559C234.6 140.799 234.859 141.001 235.146 141.155C235.309 141.278 235.507 141.344 235.712 141.344C235.916 141.344 236.114 141.278 236.278 141.155C236.461 140.929 236.595 140.668 236.673 140.388C236.75 140.107 236.77 139.814 236.729 139.526C236.755 138.778 236.606 138.034 236.293 137.354C235.99 136.774 235.525 136.296 234.954 135.977L234.419 135.663C234.272 135.572 234.164 135.43 234.113 135.265C234.042 135.004 234.012 134.733 234.021 134.462V134.088C234.004 133.854 234.035 133.62 234.113 133.399C234.182 133.284 234.281 133.269 234.419 133.346L234.84 133.59C235.337 133.881 235.719 133.873 235.995 133.59C236.298 133.213 236.446 132.734 236.408 132.252C236.412 131.708 236.306 131.169 236.094 130.668C235.9 130.209 235.562 129.825 235.13 129.575C234.92 129.439 234.682 129.352 234.434 129.322C234.266 129.315 234.098 129.336 233.937 129.383C233.792 129.429 233.692 129.445 233.654 129.383C233.453 129.168 233.311 128.904 233.241 128.618C233.11 128.268 233.032 127.899 233.012 127.525C233.012 127.071 233.266 126.857 233.776 126.882C234.386 126.936 234.973 127.135 235.49 127.463C236.375 127.986 237.084 128.761 237.524 129.689C238.036 130.707 238.298 131.832 238.289 132.971C238.324 133.593 238.192 134.214 237.907 134.768C237.805 134.957 237.658 135.118 237.479 135.237C237.301 135.355 237.095 135.428 236.882 135.449V135.541C237.452 136.193 237.886 136.952 238.159 137.774C238.476 138.692 238.633 139.657 238.626 140.627C238.659 141.412 238.524 142.195 238.228 142.922C238.138 143.163 237.993 143.379 237.805 143.553C237.616 143.727 237.389 143.854 237.142 143.924C236.586 144.014 236.017 143.889 235.551 143.572C234.829 143.169 234.17 142.665 233.593 142.073Z" fill="#653E5B"/>
<path d="M241.487 146.854C241.139 146.531 240.833 146.166 240.576 145.768C240.385 145.486 240.272 145.159 240.248 144.819C240.27 144.547 240.359 144.284 240.508 144.054C240.676 143.748 240.821 143.626 240.951 143.702C241.073 143.835 241.183 143.978 241.28 144.131C241.475 144.401 241.69 144.657 241.923 144.896C242.158 145.145 242.429 145.359 242.726 145.53C242.88 145.651 243.075 145.708 243.27 145.69C243.465 145.671 243.645 145.579 243.774 145.431C244.101 144.923 244.247 144.319 244.187 143.718C244.187 141.912 243.605 140.658 242.428 139.993L241.143 139.228C240.972 139.135 240.835 138.99 240.752 138.815C240.672 138.586 240.636 138.345 240.645 138.103L240.921 131.64C240.9 131.442 240.952 131.244 241.066 131.081C241.158 131.005 241.295 131.02 241.479 131.127L245.304 133.33C245.446 133.426 245.549 133.57 245.594 133.736C245.654 133.986 245.683 134.243 245.678 134.501V134.998C245.693 135.19 245.664 135.384 245.594 135.564C245.533 135.656 245.434 135.663 245.304 135.564L242.619 134.034L242.458 137.66L242.825 137.874C244.982 139.113 246.061 141.387 246.061 144.697C246.061 146.441 245.74 147.519 245.105 147.94C244.748 148.138 244.342 148.229 243.935 148.202C243.528 148.175 243.137 148.031 242.81 147.787C242.333 147.53 241.889 147.217 241.487 146.854Z" fill="#653E5B"/>
<path d="M229.548 184.959C234.26 182.238 234.261 173.419 229.551 165.261C224.841 157.103 217.203 152.694 212.49 155.415C207.778 158.135 207.777 166.954 212.487 175.113C217.197 183.271 224.836 187.679 229.548 184.959Z" fill="#653E5B"/>
<path d="M227.871 190.3C225.384 190.206 222.964 189.465 220.85 188.15C212.313 183.225 205.368 171.2 205.368 161.341C205.368 156.484 207.028 152.85 210.042 151.114C213.055 149.378 217.025 149.753 221.232 152.185C229.768 157.111 236.714 169.135 236.714 178.995C236.714 183.852 235.054 187.485 232.04 189.221C230.772 189.946 229.332 190.318 227.871 190.3ZM214.218 150.808C212.879 150.783 211.558 151.119 210.394 151.78C207.625 153.371 206.102 156.767 206.102 161.341C206.102 170.956 212.879 182.681 221.202 187.493C225.164 189.787 228.851 190.155 231.627 188.556C234.404 186.957 235.918 183.569 235.918 178.995C235.918 169.38 229.141 157.654 220.819 152.843C218.825 151.601 216.542 150.9 214.195 150.808H214.218Z" fill="#653E5B"/>
<g opacity="0.5">
<path opacity="0.5" d="M229.401 194.736C226.371 194.623 223.424 193.722 220.85 192.12C210.393 186.101 201.911 171.399 201.911 159.329C201.911 153.409 203.922 148.988 207.586 146.877C211.25 144.765 216.084 145.224 221.209 148.185C231.642 154.235 240.11 168.936 240.11 180.976C240.11 186.896 238.098 191.317 234.434 193.436C232.9 194.306 231.164 194.754 229.401 194.736ZM212.68 146.364C211.039 146.341 209.42 146.755 207.992 147.565C204.58 149.538 202.698 153.684 202.698 159.36C202.698 171.154 211.013 185.557 221.232 191.485C226.112 194.308 230.678 194.767 234.09 192.801C237.501 190.835 239.345 186.613 239.345 180.976C239.345 169.181 231.03 154.778 220.811 148.85C218.356 147.326 215.545 146.469 212.657 146.364H212.68Z" fill="#653E5B"/>
</g>
<g opacity="0.3">
<path opacity="0.3" d="M230.74 198.676C227.215 198.542 223.787 197.487 220.796 195.616C208.749 188.648 198.859 171.568 198.859 157.593C198.859 150.709 201.192 145.615 205.429 143.167C209.667 140.719 215.266 141.262 221.209 144.697C233.325 151.68 243.169 168.753 243.169 182.735C243.169 189.619 240.837 194.721 236.599 197.169C234.814 198.182 232.792 198.702 230.74 198.676ZM211.296 142.425C209.375 142.398 207.482 142.884 205.812 143.832C201.819 146.127 199.624 151.022 199.624 157.601C199.624 171.369 209.307 188.12 221.209 194.989C226.9 198.278 232.239 198.813 236.224 196.519C240.209 194.224 242.412 189.329 242.412 182.75C242.412 168.982 232.729 152.239 220.827 145.37C217.96 143.577 214.675 142.562 211.296 142.425Z" fill="#653E5B"/>
</g>
<path d="M223.802 170.16L218.448 167.1C218.368 167.036 218.304 166.954 218.26 166.862C218.217 166.769 218.195 166.667 218.195 166.565V163.505C218.118 162.528 218.425 161.559 219.052 160.805C219.328 160.544 219.686 160.389 220.065 160.365C220.444 160.341 220.819 160.451 221.125 160.675C222.747 161.616 224.062 164.4 224.062 166.894V169.953C224.047 170.129 223.94 170.237 223.802 170.16Z" fill="#171717"/>
<path d="M218.448 167.965L223.802 171.024C223.888 171.092 223.956 171.18 224 171.28C224.044 171.38 224.063 171.489 224.055 171.598C223.917 173.809 222.662 174.887 221.133 174.008C219.603 173.128 218.356 170.604 218.218 168.225C218.188 168.011 218.302 167.881 218.448 167.965Z" fill="#171717"/>
<path d="M220.704 175.606C218.081 174.076 216.574 170.979 216.574 167.101C216.574 166.991 216.617 166.886 216.695 166.808C216.772 166.731 216.877 166.688 216.987 166.688C217.096 166.689 217.2 166.734 217.277 166.811C217.354 166.888 217.398 166.992 217.4 167.101C217.4 170.68 218.754 173.518 221.117 174.895C221.398 175.091 221.726 175.209 222.067 175.238C222.408 175.266 222.751 175.203 223.06 175.055C223.947 174.589 224.536 173.304 224.643 171.621C224.662 171.522 224.716 171.433 224.796 171.371C224.876 171.309 224.976 171.278 225.076 171.285C225.177 171.291 225.272 171.335 225.343 171.407C225.414 171.478 225.456 171.574 225.462 171.675C225.339 173.671 224.605 175.17 223.45 175.782C223.096 175.977 222.699 176.08 222.295 176.08C222.036 176.077 221.779 176.039 221.53 175.966V178.559L222.685 179.224C222.761 179.271 222.82 179.341 222.853 179.424C222.886 179.506 222.891 179.598 222.868 179.684C222.845 179.77 222.794 179.846 222.724 179.901C222.654 179.956 222.568 179.987 222.479 179.989C222.407 179.986 222.337 179.967 222.272 179.936L219.557 178.406C219.51 178.379 219.468 178.342 219.435 178.299C219.402 178.256 219.377 178.207 219.363 178.154C219.349 178.102 219.345 178.047 219.352 177.993C219.359 177.939 219.377 177.887 219.404 177.84C219.431 177.793 219.467 177.751 219.51 177.718C219.553 177.685 219.603 177.66 219.655 177.646C219.708 177.632 219.763 177.628 219.817 177.635C219.871 177.642 219.923 177.66 219.97 177.687L220.735 178.115V175.637L220.704 175.606Z" fill="#171717"/>
<path d="M246.673 230.503C246.778 230.503 246.88 230.461 246.954 230.386C247.029 230.312 247.071 230.211 247.071 230.105V228.736C247.047 228.653 246.997 228.58 246.928 228.528C246.859 228.476 246.775 228.447 246.688 228.447C246.602 228.447 246.518 228.476 246.449 228.528C246.38 228.58 246.329 228.653 246.306 228.736V230.105C246.304 230.206 246.341 230.304 246.409 230.378C246.478 230.452 246.572 230.497 246.673 230.503Z" fill="#653E5B"/>
<path d="M244.699 233.234C244.802 233.234 244.902 233.192 244.975 233.119C245.048 233.046 245.089 232.947 245.089 232.843V223.718C245.071 223.63 245.024 223.55 244.954 223.493C244.884 223.436 244.797 223.405 244.707 223.405C244.617 223.405 244.529 223.436 244.459 223.493C244.39 223.55 244.342 223.63 244.324 223.718V232.843C244.324 232.944 244.363 233.041 244.433 233.114C244.503 233.187 244.598 233.23 244.699 233.234Z" fill="#653E5B"/>
<path d="M242.726 230.036C242.777 230.036 242.829 230.026 242.877 230.006C242.924 229.986 242.968 229.956 243.004 229.919C243.04 229.882 243.069 229.838 243.088 229.79C243.107 229.742 243.117 229.69 243.116 229.639V224.644C243.133 224.585 243.135 224.522 243.124 224.462C243.113 224.401 243.088 224.344 243.051 224.295C243.014 224.246 242.966 224.206 242.911 224.178C242.855 224.151 242.795 224.137 242.733 224.137C242.672 224.137 242.611 224.151 242.556 224.178C242.501 224.206 242.453 224.246 242.416 224.295C242.379 224.344 242.353 224.401 242.342 224.462C242.331 224.522 242.334 224.585 242.351 224.644V229.639C242.351 229.74 242.389 229.838 242.459 229.912C242.529 229.986 242.624 230.03 242.726 230.036Z" fill="#653E5B"/>
<path d="M240.745 233.7C240.796 233.701 240.848 233.692 240.896 233.673C240.944 233.653 240.988 233.625 241.025 233.589C241.062 233.552 241.092 233.509 241.112 233.461C241.132 233.413 241.142 233.362 241.142 233.31V218.693C241.119 218.61 241.068 218.537 240.999 218.485C240.93 218.432 240.846 218.404 240.76 218.404C240.673 218.404 240.589 218.432 240.52 218.485C240.451 218.537 240.401 218.61 240.377 218.693V233.31C240.377 233.41 240.415 233.506 240.483 233.578C240.552 233.651 240.645 233.694 240.745 233.7Z" fill="#653E5B"/>
<path d="M238.771 226.418C238.823 226.419 238.875 226.41 238.923 226.391C238.971 226.372 239.015 226.343 239.052 226.307C239.089 226.271 239.118 226.227 239.138 226.179C239.159 226.132 239.169 226.08 239.169 226.028V223.695C239.186 223.636 239.189 223.574 239.177 223.513C239.166 223.453 239.141 223.396 239.104 223.347C239.067 223.297 239.019 223.258 238.964 223.23C238.909 223.203 238.848 223.188 238.786 223.188C238.725 223.188 238.664 223.203 238.609 223.23C238.554 223.258 238.506 223.297 238.469 223.347C238.432 223.396 238.407 223.453 238.395 223.513C238.384 223.574 238.387 223.636 238.404 223.695V226.028C238.404 226.128 238.442 226.224 238.51 226.296C238.578 226.369 238.672 226.413 238.771 226.418Z" fill="#653E5B"/>
<path d="M236.798 227.053C236.85 227.053 236.901 227.043 236.949 227.023C236.997 227.003 237.04 226.973 237.076 226.936C237.113 226.899 237.141 226.855 237.16 226.807C237.18 226.759 237.189 226.707 237.188 226.656V220.781C237.17 220.693 237.122 220.613 237.053 220.556C236.983 220.499 236.896 220.468 236.806 220.468C236.715 220.468 236.628 220.499 236.558 220.556C236.489 220.613 236.441 220.693 236.423 220.781V226.64C236.42 226.692 236.427 226.744 236.445 226.793C236.462 226.842 236.489 226.887 236.524 226.926C236.558 226.964 236.601 226.995 236.648 227.017C236.695 227.039 236.746 227.051 236.798 227.053Z" fill="#653E5B"/>
<path d="M234.825 230.159C234.928 230.159 235.027 230.118 235.1 230.044C235.174 229.971 235.215 229.872 235.215 229.769V215.388C235.191 215.305 235.141 215.232 235.072 215.18C235.003 215.128 234.919 215.1 234.832 215.1C234.746 215.1 234.662 215.128 234.593 215.18C234.524 215.232 234.473 215.305 234.45 215.388V229.769C234.45 229.869 234.489 229.966 234.559 230.039C234.628 230.112 234.724 230.155 234.825 230.159Z" fill="#653E5B"/>
<path opacity="0.5" d="M234.825 230.159C234.928 230.159 235.027 230.118 235.1 230.044C235.174 229.971 235.215 229.872 235.215 229.769V215.388C235.191 215.305 235.141 215.232 235.072 215.18C235.003 215.128 234.919 215.1 234.832 215.1C234.746 215.1 234.662 215.128 234.593 215.18C234.524 215.232 234.473 215.305 234.45 215.388V229.769C234.45 229.869 234.489 229.966 234.559 230.039C234.628 230.112 234.724 230.155 234.825 230.159Z" fill="white"/>
<path d="M232.843 227.535C232.895 227.536 232.947 227.527 232.995 227.508C233.043 227.488 233.087 227.46 233.124 227.424C233.161 227.387 233.191 227.344 233.211 227.296C233.231 227.248 233.241 227.197 233.241 227.145V215.733C233.217 215.65 233.167 215.576 233.098 215.524C233.029 215.472 232.945 215.444 232.859 215.444C232.772 215.444 232.688 215.472 232.619 215.524C232.55 215.576 232.5 215.65 232.476 215.733V227.145C232.476 227.245 232.514 227.34 232.582 227.413C232.65 227.486 232.744 227.529 232.843 227.535Z" fill="#653E5B"/>
<path d="M230.87 228.935C230.975 228.935 231.076 228.893 231.151 228.818C231.226 228.744 231.268 228.643 231.268 228.537V212.107C231.284 212.048 231.287 211.986 231.276 211.925C231.265 211.865 231.24 211.808 231.203 211.758C231.166 211.709 231.118 211.669 231.062 211.642C231.007 211.615 230.947 211.6 230.885 211.6C230.823 211.6 230.763 211.615 230.708 211.642C230.653 211.669 230.605 211.709 230.568 211.758C230.53 211.808 230.505 211.865 230.494 211.925C230.483 211.986 230.486 212.048 230.503 212.107V228.537C230.5 228.638 230.538 228.736 230.606 228.81C230.674 228.884 230.769 228.929 230.87 228.935Z" fill="#653E5B"/>
<path d="M228.896 223.496C228.948 223.496 229 223.486 229.047 223.466C229.095 223.446 229.139 223.417 229.175 223.379C229.211 223.342 229.24 223.299 229.259 223.25C229.278 223.202 229.287 223.151 229.286 223.099V215.213C229.263 215.129 229.212 215.056 229.143 215.004C229.074 214.952 228.99 214.924 228.904 214.924C228.817 214.924 228.733 214.952 228.664 215.004C228.595 215.056 228.545 215.129 228.521 215.213V223.099C228.521 223.2 228.56 223.298 228.63 223.372C228.699 223.446 228.795 223.491 228.896 223.496Z" fill="#653E5B"/>
<path d="M226.923 219.351C227.026 219.351 227.126 219.31 227.199 219.236C227.272 219.163 227.313 219.064 227.313 218.961V217.079C227.33 217.02 227.333 216.957 227.321 216.897C227.31 216.836 227.285 216.779 227.248 216.73C227.211 216.681 227.163 216.641 227.108 216.614C227.053 216.586 226.992 216.572 226.93 216.572C226.869 216.572 226.808 216.586 226.753 216.614C226.698 216.641 226.65 216.681 226.613 216.73C226.576 216.779 226.551 216.836 226.539 216.897C226.528 216.957 226.531 217.02 226.548 217.079V218.991C226.555 219.087 226.598 219.176 226.667 219.242C226.736 219.309 226.827 219.347 226.923 219.351Z" fill="#653E5B"/>
<path d="M224.942 219.274C224.994 219.275 225.045 219.266 225.094 219.247C225.142 219.228 225.186 219.199 225.223 219.163C225.26 219.126 225.289 219.083 225.309 219.035C225.329 218.987 225.34 218.936 225.34 218.884V214.876C225.357 214.817 225.36 214.754 225.348 214.694C225.337 214.633 225.312 214.576 225.275 214.527C225.238 214.478 225.19 214.438 225.135 214.411C225.08 214.383 225.019 214.369 224.957 214.369C224.896 214.369 224.835 214.383 224.78 214.411C224.725 214.438 224.677 214.478 224.64 214.527C224.603 214.576 224.578 214.633 224.566 214.694C224.555 214.754 224.558 214.817 224.575 214.876V218.884C224.575 218.984 224.613 219.08 224.681 219.152C224.749 219.225 224.843 219.268 224.942 219.274Z" fill="#653E5B"/>
<path d="M222.968 221.523C223.02 221.524 223.072 221.515 223.12 221.495C223.168 221.476 223.212 221.448 223.249 221.411C223.286 221.375 223.316 221.332 223.336 221.284C223.356 221.236 223.366 221.185 223.366 221.133V210.34C223.342 210.257 223.292 210.184 223.223 210.132C223.154 210.08 223.07 210.052 222.984 210.052C222.897 210.052 222.813 210.08 222.744 210.132C222.675 210.184 222.625 210.257 222.601 210.34V221.133C222.601 221.232 222.639 221.328 222.707 221.401C222.775 221.473 222.869 221.517 222.968 221.523Z" fill="#653E5B"/>
<path d="M220.988 226.151C221.039 226.151 221.091 226.14 221.139 226.12C221.186 226.1 221.23 226.071 221.266 226.034C221.302 225.997 221.331 225.953 221.35 225.905C221.369 225.856 221.379 225.805 221.378 225.753V203.433C221.354 203.35 221.304 203.277 221.235 203.225C221.166 203.173 221.082 203.145 220.995 203.145C220.909 203.145 220.825 203.173 220.756 203.225C220.687 203.277 220.637 203.35 220.613 203.433V225.753C220.613 225.855 220.651 225.952 220.721 226.026C220.791 226.1 220.886 226.145 220.988 226.151Z" fill="#653E5B"/>
<path d="M219.022 222.051C219.125 222.051 219.224 222.01 219.297 221.937C219.371 221.863 219.412 221.764 219.412 221.661V205.261C219.388 205.178 219.338 205.105 219.269 205.053C219.2 205.001 219.116 204.973 219.029 204.973C218.943 204.973 218.859 205.001 218.79 205.053C218.721 205.105 218.671 205.178 218.647 205.261V221.645C218.645 221.697 218.653 221.748 218.671 221.796C218.688 221.844 218.715 221.888 218.75 221.926C218.785 221.963 218.827 221.994 218.873 222.015C218.92 222.037 218.97 222.049 219.022 222.051Z" fill="#653E5B"/>
<path d="M217.041 216.528C217.146 216.528 217.247 216.486 217.322 216.412C217.396 216.337 217.438 216.236 217.438 216.13V208.481C217.415 208.398 217.364 208.325 217.295 208.273C217.226 208.221 217.142 208.193 217.056 208.193C216.969 208.193 216.885 208.221 216.816 208.273C216.747 208.325 216.697 208.398 216.673 208.481V216.13C216.671 216.231 216.708 216.329 216.777 216.403C216.845 216.478 216.94 216.522 217.041 216.528Z" fill="#653E5B"/>
<path d="M215.067 212.734C215.119 212.735 215.17 212.726 215.219 212.707C215.267 212.688 215.311 212.659 215.348 212.623C215.385 212.586 215.414 212.543 215.434 212.495C215.454 212.447 215.465 212.396 215.465 212.344V210.011C215.482 209.952 215.485 209.89 215.473 209.829C215.462 209.769 215.437 209.712 215.4 209.662C215.363 209.613 215.315 209.573 215.26 209.546C215.205 209.519 215.144 209.504 215.082 209.504C215.021 209.504 214.96 209.519 214.905 209.546C214.85 209.573 214.802 209.613 214.765 209.662C214.728 209.712 214.703 209.769 214.691 209.829C214.68 209.89 214.683 209.952 214.7 210.011V212.344C214.7 212.444 214.738 212.54 214.806 212.612C214.874 212.685 214.968 212.728 215.067 212.734Z" fill="#653E5B"/>
<path d="M195.363 200.878C195.415 200.878 195.466 200.868 195.514 200.848C195.562 200.828 195.605 200.798 195.642 200.761C195.678 200.724 195.707 200.68 195.726 200.632C195.745 200.584 195.754 200.532 195.753 200.481V199.104C195.77 199.045 195.773 198.982 195.762 198.922C195.751 198.861 195.726 198.804 195.688 198.755C195.651 198.706 195.603 198.666 195.548 198.639C195.493 198.611 195.432 198.597 195.371 198.597C195.309 198.597 195.249 198.611 195.194 198.639C195.138 198.666 195.09 198.706 195.053 198.755C195.016 198.804 194.991 198.861 194.98 198.922C194.969 198.982 194.972 199.045 194.988 199.104V200.473C194.986 200.576 195.024 200.676 195.094 200.751C195.164 200.827 195.26 200.872 195.363 200.878Z" fill="#653E5B"/>
<path d="M197.337 205.888C197.44 205.888 197.539 205.847 197.613 205.774C197.686 205.701 197.727 205.602 197.727 205.498V196.373C197.709 196.285 197.661 196.205 197.592 196.148C197.522 196.091 197.434 196.06 197.344 196.06C197.254 196.06 197.167 196.091 197.097 196.148C197.027 196.205 196.98 196.285 196.962 196.373V205.498C196.962 205.599 197.001 205.696 197.071 205.769C197.141 205.842 197.236 205.885 197.337 205.888Z" fill="#653E5B"/>
<path d="M199.31 204.971C199.416 204.971 199.517 204.929 199.591 204.854C199.666 204.78 199.708 204.678 199.708 204.573V199.578C199.684 199.495 199.634 199.422 199.565 199.37C199.496 199.318 199.412 199.29 199.325 199.29C199.239 199.29 199.155 199.318 199.086 199.37C199.017 199.422 198.967 199.495 198.943 199.578V204.573C198.941 204.674 198.978 204.772 199.046 204.846C199.115 204.92 199.209 204.965 199.31 204.971Z" fill="#653E5B"/>
<path d="M201.291 210.922C201.343 210.922 201.394 210.911 201.442 210.891C201.49 210.871 201.533 210.842 201.57 210.805C201.606 210.768 201.634 210.724 201.654 210.675C201.673 210.627 201.682 210.576 201.681 210.524V195.914C201.698 195.855 201.701 195.793 201.69 195.732C201.678 195.672 201.653 195.615 201.616 195.565C201.579 195.516 201.531 195.476 201.476 195.449C201.421 195.422 201.36 195.407 201.299 195.407C201.237 195.407 201.176 195.422 201.121 195.449C201.066 195.476 201.018 195.516 200.981 195.565C200.944 195.615 200.919 195.672 200.908 195.732C200.896 195.793 200.899 195.855 200.916 195.914V210.524C200.916 210.625 200.955 210.723 201.024 210.797C201.094 210.871 201.19 210.916 201.291 210.922Z" fill="#653E5B"/>
<path d="M203.265 205.919C203.368 205.919 203.467 205.878 203.54 205.805C203.614 205.732 203.655 205.633 203.655 205.529V203.234C203.672 203.175 203.675 203.113 203.663 203.052C203.652 202.992 203.627 202.935 203.59 202.886C203.553 202.836 203.505 202.797 203.45 202.769C203.395 202.742 203.334 202.727 203.272 202.727C203.211 202.727 203.15 202.742 203.095 202.769C203.04 202.797 202.992 202.836 202.955 202.886C202.918 202.935 202.892 202.992 202.881 203.052C202.87 203.113 202.873 203.175 202.89 203.234V205.529C202.89 205.63 202.929 205.727 202.999 205.8C203.068 205.872 203.164 205.915 203.265 205.919Z" fill="#653E5B"/>
<path d="M205.238 208.833C205.29 208.833 205.341 208.823 205.389 208.803C205.437 208.783 205.48 208.753 205.516 208.716C205.553 208.679 205.581 208.635 205.601 208.587C205.62 208.539 205.629 208.487 205.628 208.436V202.561C205.639 202.504 205.638 202.446 205.624 202.39C205.61 202.334 205.584 202.282 205.547 202.237C205.511 202.192 205.465 202.156 205.413 202.132C205.36 202.107 205.303 202.094 205.246 202.094C205.188 202.094 205.131 202.107 205.079 202.132C205.026 202.156 204.98 202.192 204.944 202.237C204.907 202.282 204.881 202.334 204.867 202.39C204.853 202.446 204.852 202.504 204.863 202.561V208.436C204.861 208.538 204.899 208.637 204.969 208.711C205.039 208.785 205.136 208.829 205.238 208.833Z" fill="#653E5B"/>
<path d="M207.219 214.218C207.271 214.219 207.323 214.21 207.371 214.191C207.419 214.172 207.463 214.143 207.5 214.107C207.537 214.07 207.567 214.027 207.587 213.979C207.607 213.931 207.617 213.88 207.617 213.828V199.456C207.634 199.397 207.637 199.334 207.626 199.274C207.614 199.213 207.589 199.156 207.552 199.107C207.515 199.058 207.467 199.018 207.412 198.99C207.357 198.963 207.296 198.949 207.235 198.949C207.173 198.949 207.112 198.963 207.057 198.99C207.002 199.018 206.954 199.058 206.917 199.107C206.88 199.156 206.855 199.213 206.844 199.274C206.832 199.334 206.835 199.397 206.852 199.456V213.828C206.852 213.928 206.89 214.024 206.958 214.096C207.027 214.169 207.12 214.212 207.219 214.218Z" fill="#653E5B"/>
<path d="M209.193 213.882C209.245 213.882 209.296 213.871 209.344 213.851C209.392 213.831 209.435 213.802 209.471 213.765C209.508 213.728 209.536 213.684 209.555 213.635C209.574 213.587 209.584 213.536 209.583 213.484V202.072C209.559 201.988 209.509 201.915 209.44 201.863C209.371 201.811 209.287 201.783 209.2 201.783C209.114 201.783 209.03 201.811 208.961 201.863C208.892 201.915 208.842 201.988 208.818 202.072V213.484C208.818 213.585 208.856 213.683 208.926 213.757C208.996 213.831 209.091 213.876 209.193 213.882Z" fill="#653E5B"/>
<path d="M211.166 217.53C211.27 217.53 211.369 217.489 211.442 217.416C211.515 217.343 211.556 217.244 211.556 217.14V200.702C211.533 200.619 211.482 200.546 211.413 200.494C211.344 200.442 211.26 200.414 211.174 200.414C211.088 200.414 211.003 200.442 210.934 200.494C210.865 200.546 210.815 200.619 210.792 200.702V217.14C210.791 217.241 210.83 217.338 210.9 217.411C210.97 217.483 211.066 217.526 211.166 217.53Z" fill="#653E5B"/>
<path opacity="0.7" d="M230.87 228.935C230.975 228.935 231.076 228.893 231.151 228.818C231.226 228.744 231.268 228.643 231.268 228.537V212.107C231.284 212.048 231.287 211.986 231.276 211.925C231.265 211.865 231.24 211.808 231.203 211.758C231.166 211.709 231.118 211.669 231.062 211.642C231.007 211.615 230.947 211.6 230.885 211.6C230.823 211.6 230.763 211.615 230.708 211.642C230.653 211.669 230.605 211.709 230.568 211.758C230.53 211.808 230.505 211.865 230.494 211.925C230.483 211.986 230.486 212.048 230.503 212.107V228.537C230.5 228.638 230.538 228.736 230.606 228.81C230.674 228.884 230.769 228.929 230.87 228.935Z" fill="white"/>
<path opacity="0.7" d="M219.022 222.051C219.125 222.051 219.224 222.01 219.297 221.937C219.371 221.863 219.412 221.764 219.412 221.661V205.261C219.388 205.178 219.338 205.105 219.269 205.053C219.2 205.001 219.116 204.973 219.029 204.973C218.943 204.973 218.859 205.001 218.79 205.053C218.721 205.105 218.671 205.178 218.647 205.261V221.645C218.645 221.697 218.653 221.748 218.671 221.796C218.688 221.844 218.715 221.888 218.75 221.926C218.785 221.963 218.827 221.994 218.873 222.015C218.92 222.037 218.97 222.049 219.022 222.051Z" fill="white"/>
<path opacity="0.7" d="M211.166 217.53C211.27 217.53 211.369 217.489 211.442 217.416C211.515 217.343 211.556 217.244 211.556 217.14V200.702C211.533 200.619 211.482 200.546 211.413 200.494C211.344 200.442 211.26 200.414 211.174 200.414C211.088 200.414 211.003 200.442 210.934 200.494C210.865 200.546 210.815 200.619 210.792 200.702V217.14C210.791 217.241 210.83 217.338 210.9 217.411C210.97 217.483 211.066 217.526 211.166 217.53Z" fill="white"/>
<path d="M213.14 213.514C213.191 213.515 213.243 213.506 213.291 213.487C213.339 213.468 213.383 213.439 213.42 213.403C213.457 213.367 213.487 213.323 213.507 213.275C213.527 213.228 213.537 213.176 213.537 213.124V207.005C213.514 206.922 213.463 206.849 213.394 206.797C213.325 206.745 213.241 206.717 213.155 206.717C213.068 206.717 212.984 206.745 212.915 206.797C212.846 206.849 212.796 206.922 212.772 207.005V213.124C212.772 213.224 212.81 213.32 212.878 213.392C212.947 213.465 213.04 213.509 213.14 213.514Z" fill="#653E5B"/>
<path d="M215.113 212.535C215.165 212.536 215.216 212.527 215.265 212.508C215.313 212.489 215.357 212.46 215.394 212.424C215.431 212.388 215.46 212.344 215.48 212.296C215.5 212.249 215.511 212.197 215.511 212.145V210.264C215.528 210.205 215.531 210.142 215.519 210.082C215.508 210.021 215.483 209.964 215.446 209.915C215.409 209.866 215.361 209.826 215.306 209.798C215.251 209.771 215.19 209.757 215.128 209.757C215.067 209.757 215.006 209.771 214.951 209.798C214.896 209.826 214.848 209.866 214.811 209.915C214.774 209.964 214.748 210.021 214.737 210.082C214.726 210.142 214.729 210.205 214.746 210.264V212.145C214.746 212.245 214.784 212.341 214.852 212.413C214.92 212.486 215.013 212.53 215.113 212.535Z" fill="#653E5B"/>
<path opacity="0.5" d="M240.745 233.7C240.796 233.701 240.848 233.692 240.896 233.673C240.944 233.653 240.988 233.625 241.025 233.589C241.062 233.552 241.092 233.509 241.112 233.461C241.132 233.413 241.142 233.362 241.142 233.31V218.693C241.119 218.61 241.068 218.537 240.999 218.485C240.93 218.432 240.846 218.404 240.76 218.404C240.673 218.404 240.589 218.432 240.52 218.485C240.451 218.537 240.401 218.61 240.377 218.693V233.31C240.377 233.41 240.415 233.506 240.483 233.578C240.552 233.651 240.645 233.694 240.745 233.7Z" fill="white"/>
<path opacity="0.5" d="M224.942 219.274C224.994 219.275 225.045 219.266 225.094 219.247C225.142 219.228 225.186 219.199 225.223 219.163C225.26 219.126 225.289 219.083 225.309 219.035C225.329 218.987 225.34 218.936 225.34 218.884V214.876C225.357 214.817 225.36 214.754 225.348 214.694C225.337 214.633 225.312 214.576 225.275 214.527C225.238 214.478 225.19 214.438 225.135 214.411C225.08 214.383 225.019 214.369 224.957 214.369C224.896 214.369 224.835 214.383 224.78 214.411C224.725 214.438 224.677 214.478 224.64 214.527C224.603 214.576 224.578 214.633 224.566 214.694C224.555 214.754 224.558 214.817 224.575 214.876V218.884C224.575 218.984 224.613 219.08 224.681 219.152C224.749 219.225 224.843 219.268 224.942 219.274Z" fill="white"/>
<path opacity="0.5" d="M220.988 226.151C221.039 226.151 221.091 226.14 221.139 226.12C221.186 226.1 221.23 226.071 221.266 226.034C221.302 225.997 221.331 225.953 221.35 225.905C221.369 225.856 221.379 225.805 221.378 225.753V203.433C221.354 203.35 221.304 203.277 221.235 203.225C221.166 203.173 221.082 203.145 220.995 203.145C220.909 203.145 220.825 203.173 220.756 203.225C220.687 203.277 220.637 203.35 220.613 203.433V225.753C220.613 225.855 220.651 225.952 220.721 226.026C220.791 226.1 220.886 226.145 220.988 226.151Z" fill="white"/>
<path opacity="0.5" d="M217.041 216.528C217.146 216.528 217.247 216.486 217.322 216.412C217.396 216.337 217.438 216.236 217.438 216.13V208.481C217.415 208.398 217.364 208.325 217.295 208.273C217.226 208.221 217.142 208.193 217.056 208.193C216.969 208.193 216.885 208.221 216.816 208.273C216.747 208.325 216.697 208.398 216.673 208.481V216.13C216.671 216.231 216.708 216.329 216.777 216.403C216.845 216.478 216.94 216.522 217.041 216.528Z" fill="white"/>
<path opacity="0.5" d="M201.291 210.922C201.343 210.922 201.394 210.911 201.442 210.891C201.49 210.871 201.533 210.842 201.57 210.805C201.606 210.768 201.634 210.724 201.654 210.675C201.673 210.627 201.682 210.576 201.681 210.524V195.914C201.698 195.855 201.701 195.793 201.69 195.732C201.678 195.672 201.653 195.615 201.616 195.565C201.579 195.516 201.531 195.476 201.476 195.449C201.421 195.422 201.36 195.407 201.299 195.407C201.237 195.407 201.176 195.422 201.121 195.449C201.066 195.476 201.018 195.516 200.981 195.565C200.944 195.615 200.919 195.672 200.908 195.732C200.896 195.793 200.899 195.855 200.916 195.914V210.524C200.916 210.625 200.955 210.723 201.024 210.797C201.094 210.871 201.19 210.916 201.291 210.922Z" fill="white"/>
<path opacity="0.5" d="M209.193 213.882C209.245 213.882 209.296 213.871 209.344 213.851C209.392 213.831 209.435 213.802 209.471 213.765C209.508 213.728 209.536 213.684 209.555 213.635C209.574 213.587 209.584 213.536 209.583 213.484V202.072C209.559 201.988 209.509 201.915 209.44 201.863C209.371 201.811 209.287 201.783 209.2 201.783C209.114 201.783 209.03 201.811 208.961 201.863C208.892 201.915 208.842 201.988 208.818 202.072V213.484C208.818 213.585 208.856 213.683 208.926 213.757C208.996 213.831 209.091 213.876 209.193 213.882Z" fill="white"/>
<path d="M242.305 258.062C241.441 258.026 240.602 257.762 239.873 257.297C238.318 256.291 237.022 254.932 236.092 253.33C235.161 251.728 234.622 249.93 234.519 248.08C234.519 246.398 235.092 245.135 236.148 244.531C237.203 243.927 238.573 244.049 240.033 244.898C241.589 245.905 242.884 247.264 243.814 248.866C244.745 250.467 245.284 252.266 245.388 254.115C245.388 255.798 244.806 257.06 243.759 257.664C243.319 257.926 242.817 258.063 242.305 258.062ZM237.632 244.562C237.19 244.556 236.755 244.667 236.37 244.883C235.444 245.418 234.932 246.558 234.932 248.103C235.03 249.883 235.546 251.616 236.438 253.16C237.329 254.704 238.571 256.016 240.064 256.991C241.403 257.756 242.642 257.894 243.567 257.359C244.493 256.823 245.005 255.706 245.005 254.177C244.908 252.396 244.393 250.663 243.501 249.119C242.609 247.575 241.366 246.263 239.873 245.288C239.202 244.855 238.429 244.605 237.632 244.562Z" fill="#653E5B"/>
<path d="M241.9 254.582L238.075 252.348C238.044 252.323 238.019 252.292 238 252.256C237.982 252.221 237.971 252.182 237.968 252.142V247.744C237.968 247.667 238.022 247.629 238.075 247.66L241.9 249.893C241.931 249.918 241.957 249.95 241.975 249.985C241.993 250.021 242.004 250.06 242.007 250.1V254.498C242.007 254.574 241.953 254.613 241.9 254.582Z" fill="#653E5B"/>
<path d="M202.737 235.222C201.874 235.183 201.035 234.919 200.304 234.458C198.749 233.45 197.454 232.089 196.523 230.486C195.593 228.883 195.054 227.083 194.95 225.233C194.95 223.55 195.532 222.288 196.579 221.684C197.627 221.079 199.012 221.21 200.465 222.051C202.02 223.059 203.316 224.42 204.246 226.023C205.177 227.625 205.716 229.425 205.819 231.276C205.819 232.958 205.246 234.22 204.198 234.825C203.755 235.085 203.251 235.222 202.737 235.222ZM198.04 221.714C197.596 221.708 197.158 221.819 196.771 222.036C195.845 222.571 195.333 223.718 195.333 225.256C195.43 227.037 195.945 228.771 196.837 230.316C197.729 231.862 198.971 233.176 200.465 234.152C201.804 234.917 203.05 235.047 203.976 234.511C204.902 233.976 205.406 232.836 205.406 231.299C205.316 229.522 204.81 227.792 203.929 226.247C203.048 224.702 201.817 223.385 200.335 222.403C199.646 221.972 198.853 221.734 198.04 221.714Z" fill="#455A64"/>
<path d="M199.41 230.258V225.607C199.41 225.477 199.494 225.447 199.563 225.546L202.622 229.616C202.699 229.73 202.699 229.906 202.622 229.922L199.563 230.503C199.494 230.518 199.41 230.388 199.41 230.258Z" fill="#455A64"/>
<path d="M222.517 246.642C221.656 246.607 220.819 246.343 220.093 245.877C218.537 244.871 217.242 243.512 216.312 241.91C215.381 240.308 214.842 238.51 214.738 236.66C214.738 234.97 215.312 233.715 216.36 233.104C217.408 232.492 218.792 232.629 220.253 233.471C221.802 234.485 223.091 235.848 224.016 237.452C224.94 239.056 225.475 240.855 225.577 242.703C225.577 244.386 224.996 245.648 223.948 246.252C223.513 246.505 223.02 246.64 222.517 246.642ZM217.851 233.134C217.406 233.127 216.967 233.24 216.582 233.463C215.656 233.998 215.151 235.138 215.151 236.683C215.25 238.463 215.766 240.196 216.657 241.74C217.549 243.284 218.791 244.596 220.284 245.571C221.615 246.336 222.862 246.474 223.787 245.939C224.713 245.403 225.225 244.256 225.225 242.718C225.128 240.938 224.612 239.205 223.721 237.661C222.829 236.117 221.586 234.804 220.093 233.83C219.418 233.408 218.646 233.168 217.851 233.134Z" fill="#653E5B"/>
<path d="M219.542 241.938L218.716 241.464C218.679 241.438 218.649 241.403 218.627 241.364C218.606 241.324 218.594 241.28 218.593 241.234V236.347C218.593 236.255 218.647 236.217 218.716 236.255L219.542 236.729C219.577 236.756 219.606 236.791 219.626 236.831C219.646 236.87 219.656 236.914 219.656 236.959V241.846C219.656 241.938 219.603 241.938 219.542 241.938Z" fill="#653E5B"/>
<path d="M221.653 243.147L220.834 242.703C220.798 242.678 220.767 242.646 220.746 242.607C220.725 242.568 220.713 242.525 220.712 242.481V237.593C220.712 237.502 220.765 237.463 220.834 237.502L221.653 237.976C221.69 238.001 221.721 238.035 221.743 238.075C221.764 238.115 221.775 238.16 221.775 238.205V243.093C221.752 243.147 221.752 243.185 221.653 243.147Z" fill="#653E5B"/>
<path d="M225.936 74.3412L213.46 67.1359C212.696 66.7075 212.114 67.0135 212.114 67.8166C212.147 68.2697 212.286 68.7087 212.52 69.0981C212.753 69.4874 213.076 69.8162 213.46 70.0578L225.936 77.2555C226.701 77.6838 227.282 77.3779 227.282 76.5747C227.248 76.123 227.109 75.6855 226.875 75.2976C226.641 74.9096 226.32 74.582 225.936 74.3412Z" fill="#171717"/>
<path d="M204.535 61.9651C203.838 61.5597 203.272 61.8886 203.272 62.73C203.295 63.1684 203.421 63.5953 203.64 63.9756C203.86 64.3559 204.166 64.6787 204.535 64.9176C205.231 65.323 205.797 64.9941 205.797 64.1527C205.773 63.7145 205.646 63.2881 205.427 62.908C205.208 62.5279 204.902 62.2049 204.535 61.9651Z" fill="#171717"/>
<path d="M199.478 59.0434C198.775 58.6456 198.208 58.9669 198.208 59.8083C198.233 60.2471 198.361 60.674 198.581 61.0541C198.802 61.4343 199.109 61.757 199.478 61.9959C200.174 62.4013 200.74 62.0724 200.74 61.2693C200.721 60.8248 200.597 60.3912 200.378 60.0042C200.158 59.6172 199.85 59.2879 199.478 59.0434Z" fill="#171717"/>
<path d="M239.926 82.3957C239.222 81.9979 238.664 82.3192 238.664 83.1606C238.687 83.5989 238.813 84.0256 239.033 84.4057C239.252 84.7859 239.558 85.1088 239.926 85.3482C240.622 85.7536 241.188 85.4247 241.188 84.6215C241.169 84.1771 241.045 83.7435 240.826 83.3565C240.606 82.9695 240.298 82.6402 239.926 82.3957Z" fill="#171717"/>
<path d="M234.863 79.4813C234.167 79.0759 233.601 79.4048 233.601 80.2462C233.624 80.6854 233.751 81.1129 233.97 81.4942C234.189 81.8756 234.495 82.2 234.863 82.4415C235.566 82.8392 236.132 82.518 236.132 81.6766C236.109 81.2364 235.982 80.808 235.761 80.4265C235.54 80.0449 235.233 79.721 234.863 79.4813Z" fill="#171717"/>
<path d="M141.676 44.7233L136.218 54.842C135.789 54.3711 135.222 54.0488 134.598 53.9218C133.974 53.7948 133.326 53.8696 132.747 54.1354C132.169 54.4013 131.69 54.8443 131.38 55.4005C131.07 55.9567 130.945 56.5971 131.023 57.229C131.101 57.8609 131.378 58.4516 131.814 58.9156C132.25 59.3795 132.823 59.6926 133.449 59.8096C134.074 59.9266 134.721 59.8413 135.296 59.5662C135.87 59.2911 136.342 58.8404 136.643 58.2793L141.548 49.2677L151.962 51.8424L147.122 60.854C146.897 60.5927 146.627 60.3745 146.324 60.2103C145.795 59.9382 145.198 59.8286 144.607 59.8954C144.016 59.9622 143.458 60.2024 143.003 60.5857C142.549 60.969 142.218 61.4783 142.052 62.0495C141.886 62.6206 141.893 63.2279 142.072 63.7951C142.251 64.3622 142.594 64.8637 143.057 65.2363C143.521 65.609 144.084 65.8361 144.676 65.8892C145.269 65.9423 145.863 65.8189 146.386 65.5345C146.908 65.2502 147.334 64.8176 147.611 64.2913L155.619 49.1518L141.676 44.7233Z" fill="#603B56"/>
<path d="M34.4644 9.26906L39.9614 19.3621C39.6224 19.4084 39.295 19.5176 38.9959 19.6839C38.477 19.9705 38.0546 20.4045 37.7822 20.931C37.5098 21.4575 37.3994 22.0529 37.4652 22.6421C37.5309 23.2313 37.7697 23.7877 38.1515 24.2413C38.5333 24.6948 39.0409 25.025 39.6102 25.1902C40.1795 25.3555 40.785 25.3483 41.3503 25.1696C41.9156 24.9909 42.4152 24.6488 42.7861 24.1863C43.157 23.7239 43.3826 23.1619 43.4344 22.5714C43.4861 21.9808 43.3617 21.3882 43.0769 20.8683L38.1591 11.8567L45.8833 4.5058L50.7882 13.5174C50.4465 13.5696 50.1158 13.6784 49.8098 13.8392C49.3072 14.149 48.9067 14.5995 48.6581 15.135C48.4094 15.6704 48.3235 16.2671 48.4112 16.851C48.4988 17.4348 48.7561 17.98 49.151 18.4188C49.5459 18.8577 50.061 19.1708 50.6324 19.3194C51.2038 19.4679 51.8062 19.4452 52.3648 19.2543C52.9234 19.0633 53.4136 18.7123 53.7745 18.2451C54.1353 17.7778 54.3509 17.2149 54.3945 16.6261C54.4381 16.0373 54.3077 15.4488 54.0195 14.9335L45.7804 0L34.4644 9.26906Z" fill="#603B56"/>
<path d="M10.5062 37.9131L5.18937 48.0962C4.754 47.6311 4.18187 47.3167 3.55585 47.1986C2.92984 47.0804 2.28246 47.1647 1.70753 47.4391C1.13259 47.7135 0.659962 48.1638 0.358101 48.7248C0.0562412 49.2858 -0.0591616 49.9284 0.0286076 50.5594C0.116377 51.1904 0.402759 51.777 0.846267 52.2343C1.28978 52.6917 1.86737 52.9959 2.49537 53.103C3.12337 53.2101 3.76915 53.1144 4.33916 52.8299C4.90916 52.5454 5.37379 52.0868 5.66571 51.5206L10.4418 42.3931L20.8824 44.7748L16.1835 53.7864C15.9538 53.5319 15.6788 53.3224 15.3725 53.1684C14.8456 52.8974 14.2502 52.7886 13.6615 52.8556C13.0728 52.9225 12.5171 53.1623 12.0646 53.5448C11.612 53.9272 11.2829 54.4351 11.1186 55.0043C10.9543 55.5736 10.9624 56.1788 11.1416 56.7435C11.3209 57.3082 11.6634 57.8072 12.126 58.1775C12.5885 58.5478 13.1503 58.7728 13.7406 58.8242C14.3309 58.8755 14.9231 58.7509 15.4426 58.4661C15.9622 58.1813 16.3857 57.7489 16.6598 57.2236L24.5128 42.097L10.5062 37.9131Z" fill="#603B56"/>
<path d="M103.549 28.8372C104.111 28.0239 104.839 27.3394 105.686 26.8289C106.814 26.1669 108.026 25.6602 109.29 25.3227C110.991 24.8999 112.646 24.3136 114.234 23.5718C115.035 23.1964 115.751 22.6596 116.336 21.9951C116.92 21.3306 117.362 20.5526 117.632 19.7097C116.788 20.2999 115.819 20.6875 114.8 20.8426C112.367 21.2159 109.651 20.0316 107.076 19.8899C103.42 19.6968 100.819 21.3189 98 23.9967C99.5835 26.7903 101.09 29.6353 102.622 32.4547C103.832 34.6518 105.038 36.8618 106.239 39.0846C106.355 39.2906 107.81 42.1357 107.81 42.1357C106.836 42.1794 105.886 42.4435 105.029 42.9081C104.091 43.4224 103.327 44.2032 102.833 45.1519C102.339 46.1006 102.137 47.1745 102.254 48.2378C102.37 49.301 102.799 50.3059 103.487 51.1252C104.175 51.9445 105.09 52.5414 106.117 52.8405C107.144 53.1396 108.236 53.1274 109.256 52.8054C110.276 52.4834 111.178 51.8661 111.847 51.0316C112.516 50.1971 112.923 49.1829 113.015 48.1173C113.108 47.0517 112.882 45.9826 112.367 45.0452L103.549 28.8372Z" fill="#603B56"/>
<path d="M57.3023 57.79C58.2856 57.8137 59.252 58.0509 60.1345 58.4852C61.3082 59.0832 62.3988 59.8319 63.3786 60.7123C64.6535 61.9087 66.0418 62.9779 67.524 63.905C68.2671 64.3733 69.0981 64.6845 69.966 64.8196C70.8339 64.9546 71.7202 64.9106 72.5705 64.6903C71.6206 64.29 70.7718 63.6831 70.0858 62.9138C68.4637 61.0857 67.9488 58.099 66.7258 55.9619C64.9106 52.7821 62.1299 51.4819 58.3579 50.5679C56.8645 53.4001 55.294 56.2194 53.762 59.0388C52.5519 61.253 51.3503 63.4673 50.1574 65.6816L48.4451 68.6554C47.8724 67.8629 47.1345 67.204 46.2824 66.7244C45.3414 66.2161 44.2708 65.9983 43.206 66.0985C42.1412 66.1987 41.1301 66.6124 40.3005 67.2873C39.4708 67.9622 38.86 68.868 38.5452 69.8901C38.2304 70.9122 38.2258 72.0047 38.5319 73.0295C38.8381 74.0542 39.4413 74.9651 40.2652 75.647C41.0891 76.3289 42.0967 76.7512 43.1606 76.8603C44.2245 76.9695 45.2969 76.7608 46.2421 76.2604C47.1873 75.7601 47.963 74.9907 48.4709 74.0495L57.3023 57.79Z" fill="#603B56"/>
</svg>
