<svg width="15" height="16" viewBox="0 0 15 16" fill="none" xmlns="http://www.w3.org/2000/svg">
<path d="M14.0758 0.818783C14.1586 0.874745 14.2232 0.954719 14.2614 1.04849C14.2997 1.14227 14.3097 1.24559 14.2904 1.34526L14.291 1.34221L12.249 13.8995C12.2364 13.9761 12.2072 14.0488 12.1634 14.1122C12.1197 14.1757 12.0626 14.2282 11.9963 14.266L11.9939 14.2672C11.9202 14.3102 11.8368 14.3327 11.752 14.3325H11.746C11.6792 14.331 11.6133 14.3167 11.5517 14.2904L11.5553 14.2916L7.35096 12.5326L4.97345 15.2059C4.92926 15.2597 4.87415 15.3029 4.81197 15.3325C4.74979 15.3622 4.68204 15.3775 4.61345 15.3776H4.59796H4.58306C4.52442 15.3776 4.46632 15.366 4.412 15.3434L4.41498 15.3446C4.31813 15.3089 4.235 15.2423 4.17777 15.1546L4.17657 15.1528C4.1192 15.0659 4.08868 14.9633 4.08896 14.8584V11.1602L0.32213 9.58263C0.230098 9.55076 0.149992 9.4904 0.0928742 9.40988C0.035756 9.32936 0.0044434 9.23265 0.00326048 9.13311C-0.00800511 9.03614 0.0100806 8.93797 0.0550687 8.85188C0.100057 8.7658 0.169774 8.69596 0.25478 8.65183L0.257164 8.65061L13.5334 0.802293C13.614 0.745499 13.7101 0.71648 13.8079 0.719445C13.9056 0.72241 13.9999 0.757205 14.077 0.818783H14.0758ZM11.3473 13.0738L13.1115 2.25774L1.67032 9.0189L4.35121 10.139L11.2358 4.91518L7.42129 11.4308L11.3473 13.0738Z" fill="#020202"/>
</svg>
