<svg width="48" height="33" viewBox="0 0 48 33" fill="none" xmlns="http://www.w3.org/2000/svg">
<path d="M46.9949 5.02324C46.7232 4.05383 46.1938 3.17618 45.4631 2.48358C44.7118 1.76969 43.7909 1.25902 42.7875 0.999783C39.032 0.00991622 23.986 0.00991645 23.986 0.00991645C17.7135 -0.0614487 11.4426 0.252433 5.20853 0.94979C4.20505 1.22818 3.28592 1.75026 2.53289 2.46959C1.79299 3.18149 1.25707 4.05937 0.977103 5.02124C0.304579 8.64424 -0.0221786 12.3229 0.0012342 16.0078C-0.0227626 19.6893 0.303194 23.3668 0.977103 26.9943C1.25107 27.9522 1.78499 28.826 2.52689 29.5319C3.26879 30.2379 4.19267 30.7478 5.20853 31.0177C9.01402 32.0056 23.986 32.0056 23.986 32.0056C30.2665 32.0771 36.5454 31.7632 42.7875 31.0657C43.7909 30.8065 44.7118 30.2958 45.4631 29.5819C46.1935 28.8895 46.7223 28.0117 46.9929 27.0423C47.683 23.4207 48.0185 19.7404 47.9948 16.0538C48.0467 12.3515 47.7116 8.65388 46.9949 5.02124V5.02324ZM19.2027 22.8548V9.16268L31.721 16.0098L19.2027 22.8548Z" fill="black"/>
</svg>
